<svg width="500" height="328" viewBox="0 0 500 328" fill="none" xmlns="http://www.w3.org/2000/svg">
<path d="M250,3.7c1.2,0,2.2,0.4,3.1,1.1l3-4.2C254.5,0.3,252.3,0,250,0c-2.2,0-4.5,0.3-6.1,0.5l3,4.2
	C247.8,4.1,248.8,3.7,250,3.7z M259.9,22.8c0,5.2-4.4,9.4-9.9,9.4c-5.4,0-9.9-4.2-9.9-9.4s4.4-9.4,9.9-9.4
	C255.5,13.4,259.9,17.6,259.9,22.8z M278.2,84.4c6.6,0.8,13.2,1.9,19.7,3.3c1.2,0.3,1.7,1.3,1.7,2.2c0,1-0.7,2-2,2.1
	c-0.6,0-1.3-0.1-1.9-0.3c-0.3-0.1-0.5-0.1-0.8-0.2c-0.5-0.1-1-0.2-1.5-0.3c-0.3-0.1-0.6-0.1-0.9-0.2c-1.6-0.3-3.2-0.6-4.8-0.9
	c-2.3-0.4-4.7-0.7-7-1.1l0,0l0,0l0,0c-0.9-0.1-1.8-0.3-2.6-0.4c-6.4-0.9-12.9-1.3-19.4-1.6c-6.4-0.3-12.9-0.2-19.3,0.1
	c-6.5,0.3-12.9,0.9-19.3,1.8c-2.3,0.3-4.6,0.7-7,1.1l0,0l0,0l0,0l0,0l0,0l0,0l0,0l0,0c-0.9,0.1-1.8,0.3-2.7,0.4
	c-0.9,0.2-1.9,0.3-2.8,0.5l0,0c-0.7,0.1-1.3,0.3-2,0.4c-0.3,0-0.5,0.1-0.8,0.2c-1.6,0.4-3.5,0.8-4.2-1c-0.1-0.3-0.1-0.5-0.1-0.8
	c0-0.8,0.4-1.6,1.2-1.9c0.5-0.2,1.2-0.3,1.8-0.4c0.3,0,0.5-0.1,0.7-0.1c0.9-0.2,1.7-0.3,2.6-0.5l0,0l0,0c0.8-0.2,1.6-0.3,2.4-0.5
	c2.9-0.6,5.8-1,8.7-1.4l1.1-0.2c6.5-0.9,13.1-1.5,19.7-1.8c6.6-0.3,13.1-0.4,19.7-0.1C265,83.1,271.6,83.6,278.2,84.4z M280.3,108.4
	c0.4-0.1,0.9-0.2,1.3-0.2c1.6,0.1,1.8,2.1,0.2,2.4c-4.3,0.8-8.7,1.4-13.1,1.9c-4.3,0.5-8.7,0.8-13.1,0.9s-8.7,0.1-13.1-0.1
	c-4.4-0.2-8.7-0.5-13.1-1l-0.8-0.1l0,0l0,0l0,0l0,0l0,0l0,0l0,0l0,0l0,0l0,0l0,0l0,0l0,0l0,0l0,0l0,0l0,0l0,0l0,0l0,0l0,0l0,0l0,0
	l0,0l0,0l0,0l0,0l0,0l0,0l0,0l0,0l0,0l0,0l0,0l0,0l0,0l0,0l0,0l0,0l0,0l0,0l0,0l0,0l0,0l0,0c-1.9-0.2-3.9-0.5-5.8-0.8
	c-0.5-0.1-1-0.2-1.6-0.3l0,0c-0.6-0.1-1.2-0.2-1.7-0.3c-0.2,0-0.3-0.1-0.5-0.1c-0.4-0.1-0.8-0.1-1.2-0.3c-0.7-0.3-1-0.9-0.7-1.5
	c0.4-1,1.7-0.8,2.8-0.6c0.2,0,0.4,0.1,0.6,0.1c0.4,0.1,0.9,0.1,1.3,0.2c0.6,0.1,1.2,0.2,1.9,0.3c0.6,0.1,1.2,0.2,1.8,0.3
	c1.5,0.2,3.1,0.4,4.6,0.6c4.2,0.5,8.5,0.8,12.8,1s8.5,0.2,12.8,0c4.3-0.1,8.6-0.4,12.9-0.9c0.6-0.1,1.2-0.1,1.7-0.2
	c1.6-0.2,3.1-0.4,4.7-0.6c1.1-0.2,2.1-0.3,3.2-0.5c0.2,0,0.4-0.1,0.6-0.1l0,0l0,0l0,0l0,0l0,0l0,0l0,0l0,0l0,0l0,0
	c0.3-0.1,0.6-0.1,1-0.2C280,108.5,280.1,108.4,280.3,108.4L280.3,108.4L280.3,108.4z M289.3,95.6c-0.4-0.1-0.8-0.1-1.2-0.2l-0.4-0.1
	c-0.2,0-0.5-0.1-0.8-0.1l0,0l0,0l0,0l0,0l0,0l0,0l0,0c-0.3,0-0.5-0.1-0.8-0.1l-0.3-0.1c-0.6-0.1-1.2-0.2-1.8-0.3h-0.2h-0.2
	c-0.3,0-0.5-0.1-0.8-0.1c-0.5-0.1-0.9-0.1-1.4-0.2c-0.7-0.1-1.4-0.2-2-0.2c-0.5-0.1-1-0.1-1.4-0.2h-0.1h-0.1l0,0l0,0l0,0h-0.2h-0.1
	h-0.1h-0.1c-0.1,0-0.1,0-0.2,0c-0.3,0-0.5-0.1-0.8-0.1l0,0l0,0c-0.4-0.1-0.9-0.1-1.3-0.2c-0.4,0-0.8-0.1-1.1-0.1l0,0
	c-0.3,0-0.7,0-1-0.1c-0.3,0-0.6-0.1-0.8-0.1c-0.4,0-0.7-0.1-1.1-0.1c-0.8-0.1-1.6-0.1-2.3-0.2c-0.4,0-0.7,0-1.1-0.1
	c-0.3,0-0.7-0.1-1-0.1l0,0c-0.4,0-0.8-0.1-1.3-0.1c-2.4-0.1-4.8-0.2-7.2-0.3H258h-0.1l0,0h-0.1h-0.1c-1.8-0.1-3.6-0.1-5.4-0.1
	c-0.1,0-0.2,0-0.3,0c-0.4,0-0.8,0-1.2,0c-0.3,0-0.6,0-0.9,0c-0.3,0-0.6,0-0.9,0c-0.4,0-0.8,0-1.2,0h-0.1h-0.1c-0.1,0-0.1,0-0.2,0
	c-1.8,0-3.6,0-5.4,0.1h-0.1l0,0h-0.1c-2.4,0.1-4.8,0.2-7.2,0.3c-0.4,0-0.8,0.1-1.3,0.1c-0.3,0-0.7,0.1-1,0.1c-0.4,0-0.7,0-1.1,0.1
	c-0.8,0.1-1.6,0.1-2.3,0.2c-0.4,0-0.7,0.1-1.1,0.1c-0.3,0-0.5,0.1-0.8,0.1s-0.7,0.1-1,0.1l0,0l0,0l0,0l0,0l0,0l0,0l0,0l0,0l0,0
	c-0.4,0-0.8,0.1-1.1,0.1c-0.4,0-0.9,0.1-1.3,0.2c-0.3,0-0.5,0.1-0.8,0.1c-0.1,0-0.1,0-0.2,0l0,0h-0.1h-0.1c-0.1,0-0.2,0-0.3,0l0,0
	l0,0H222h-0.1c-0.5,0.1-0.9,0.1-1.4,0.2l0,0l0,0l0,0l0,0l0,0l0,0l0,0c-0.7,0.1-1.4,0.2-2,0.2c-0.5,0.1-0.9,0.1-1.4,0.2
	c-0.3,0-0.5,0.1-0.8,0.1h-0.2h-0.2c-0.6,0.1-1.2,0.2-1.8,0.3l-0.3,0.1c-0.3,0-0.5,0.1-0.8,0.1s-0.5,0.1-0.8,0.1l-0.4,0.1
	c-0.4,0.1-0.8,0.1-1.2,0.2c-0.2,0-1.5,0.3-3.2,0.7l3.5,9.2l0.7-0.2l0.3-0.1c0.3-0.1,0.5-0.1,0.8-0.2l0,0c0.2,0,0.4-0.1,0.6-0.1
	c0.7-0.1,1.3-0.3,2-0.4l0,0l0,0l0,0l0,0l0,0l0,0l0,0l0,0l0,0l0,0l0,0l0,0l0,0l0,0l0,0l0,0l0,0l0,0l0,0l0,0l0,0l0,0l0,0l0,0l0,0l0,0
	l0,0l0,0l0,0l0,0l0,0l0,0l0,0l0,0l0,0l0,0l0,0l0,0l0,0l0,0l0,0l0,0l0,0l0,0l0,0c0.4-0.1,0.8-0.2,1.2-0.2c2.1-0.4,4.3-0.8,6.5-1.1
	c2.1-0.3,4.2-0.6,6.4-0.9c3.1-0.4,6.2-0.7,9.3-0.9c3.7-0.3,7.5-0.4,11.3-0.4s7.5,0.2,11.3,0.4c3.1,0.2,6.2,0.5,9.3,0.9
	c2.1,0.3,4.3,0.6,6.4,0.9c2.2,0.3,4.3,0.7,6.5,1.1c0.4,0.1,0.8,0.2,1.2,0.2l0,0c0.7,0.1,1.3,0.2,2,0.4c0.2,0,0.4,0.1,0.6,0.1
	c0.3,0,0.5,0.1,0.8,0.2c0.2,0,0.5,0.1,1,0.2l3.5-9.2C290.8,96,289.5,95.7,289.3,95.6z M200.1,316.9l-1.7-2.7l6-3.8h3.5v17.3h-3.8
	v-13.2L200.1,316.9z M239.2,318.8c0.8-0.6,1.3-1.2,1.6-1.7s0.4-1.3,0.4-2.3c0-1.5-0.6-2.7-1.9-3.5c-1.2-0.8-2.9-1.3-4.9-1.3
	s-3.6,0.4-4.8,1.2c-1.2,0.8-1.8,2-1.8,3.5c0,0.9,0.1,1.7,0.4,2.2c0.3,0.6,0.8,1.2,1.6,1.7c-0.8,0.6-1.4,1.3-1.8,1.9
	c-0.4,0.6-0.5,1.5-0.5,2.6c0,3.1,2.3,4.7,6.9,4.7c2.1,0,3.8-0.4,5.1-1.2c1.3-0.8,1.9-2.1,1.9-3.8c0-1-0.2-1.8-0.5-2.4
	C240.5,320,240,319.4,239.2,318.8z M232.6,313.9c0.4-0.4,1.1-0.5,1.9-0.5c1.7,0,2.6,0.7,2.6,2c0,0.8-0.5,1.5-1.4,2h-2.4
	c-0.9-0.6-1.4-1.3-1.4-2C231.9,314.7,232.1,314.2,232.6,313.9z M234.5,324.8c-1.9,0-2.9-0.8-2.9-2.3c0-0.9,0.6-1.6,1.7-2h2.4
	c1.1,0.4,1.6,1.1,1.6,2C237.3,324,236.4,324.8,234.5,324.8z M259.6,312.2c1.2-1.4,3-2.2,5.3-2.2s4.1,0.7,5.3,2.2
	c1.2,1.4,1.8,3.7,1.8,6.9c0,3.2-0.6,5.5-1.8,6.8c-1.2,1.4-3,2.1-5.3,2.1c-2.4,0-4.1-0.7-5.3-2.1c-1.2-1.4-1.8-3.6-1.8-6.8
	C257.8,316,258.4,313.7,259.6,312.2z M264.9,324.9c1.1,0,1.9-0.4,2.4-1.3s0.7-2.4,0.7-4.5c0-2.2-0.2-3.7-0.7-4.5
	c-0.5-0.9-1.3-1.3-2.4-1.3s-1.9,0.4-2.4,1.3s-0.7,2.4-0.7,4.5c0,2.2,0.2,3.7,0.7,4.5S263.8,324.9,264.9,324.9z M289.5,313.6h7.9v0.8
	l-6.2,12.6l3.5,0.9l6.5-13.5v-4.1h-11.7L289.5,313.6L289.5,313.6z M328.3,316.2h27.2v2h-27.2V316.2z M171.7,316.2h-27.2v2h27.2
	V316.2z M462.8,272.4c0,1.7-1.4,3-3.2,3c-1.8,0-3.2-1.3-3.2-3s1.4-3,3.2-3S462.8,270.8,462.8,272.4z M40.3,275.5
	c1.8,0,3.2-1.3,3.2-3s-1.4-3-3.2-3s-3.2,1.3-3.2,3C37.2,274.1,38.6,275.5,40.3,275.5z M274.1,272.4c0,1.7-1.4,3-3.2,3
	c-1.8,0-3.2-1.3-3.2-3s1.4-3,3.2-3C272.6,269.4,274.1,270.8,274.1,272.4z M290.8,266.1h5.2v15.3h4v-15.3h5.2v-3.3h-14.4L290.8,266.1
	L290.8,266.1z M336.9,281.4h-4l-0.8-3.4h-6.9l-0.8,3.4h-4l4.4-18.6h7.6L336.9,281.4z M328,265.9l-2,8.8h5.4l-2-8.8H328z
	 M369.6,268.9c0-4.1-2.3-6.1-6.9-6.1h-7.6v18.6h4v-6.2h3.8l2.3,6.2h4.4l-2.8-7.1C368.7,273.1,369.6,271.3,369.6,268.9z M364.9,271.1
	c-0.5,0.5-1.2,0.8-2.1,0.8h-3.7V266h3.6c0.9,0,1.6,0.3,2.1,0.8s0.7,1.2,0.7,2.1C365.6,269.8,365.3,270.5,364.9,271.1z M392,266.1
	h-5.2v-3.3h14.4v3.3H396v15.3h-4V266.1z M430.1,275.1c0,2.2-1.2,3.3-3.5,3.3s-3.5-1.1-3.5-3.3v-12.4h-4V275c0,2.3,0.6,4,1.9,5
	c1.2,1.1,3.1,1.6,5.6,1.6s4.4-0.5,5.6-1.6s1.9-2.7,1.9-5v-12.3h-4V275.1z M66,262.8h4v15.3h7.2v3.3H66V262.8z M102.2,262.4
	c-3,0-5.1,0.8-6.3,2.4c-1.2,1.6-1.8,4-1.8,7.3s0.6,5.7,1.8,7.2c1.2,1.5,3.3,2.3,6.3,2.3s5.1-0.8,6.3-2.3c1.2-1.5,1.8-4,1.8-7.2
	c0-3.3-0.6-5.7-1.8-7.3C107.3,263.2,105.2,262.4,102.2,262.4z M105.4,277c-0.6,1-1.6,1.4-3.2,1.4s-2.6-0.5-3.2-1.4
	c-0.6-1-0.9-2.6-0.9-4.8c0-2.3,0.3-3.9,0.9-4.9s1.6-1.5,3.2-1.5s2.6,0.5,3.2,1.5s0.9,2.7,0.9,4.9S106,276,105.4,277z M141.1,262.8h4
	v18.6h-6.5l-4.9-15.3h-0.3v15.3h-4v-18.6h6.7l4.7,15.3h0.3V262.8z M178.2,264.9c-0.6-0.8-1.5-1.3-2.6-1.7c-1.1-0.3-2.5-0.5-4.2-0.5
	h-6.6v18.6h6.6c1.7,0,3.2-0.2,4.3-0.6s2-1,2.6-1.9s1-1.9,1.2-3s0.3-2.5,0.3-4.2s-0.1-3-0.3-4.1C179.2,266.6,178.8,265.7,178.2,264.9
	z M175.7,274c-0.1,1.5-0.5,2.5-1,3.1c-0.7,0.7-1.7,1-3.1,1H169v-12h2.6c1,0,1.7,0.1,2.3,0.3c0.6,0.2,1,0.5,1.3,1.1
	c0.3,0.5,0.5,1.1,0.5,1.7c0.1,0.6,0.1,1.4,0.1,2.5C175.7,272.6,175.7,273.4,175.7,274z M199.8,264.8c1.2-1.6,3.3-2.4,6.3-2.4
	s5.1,0.8,6.3,2.4s1.8,4,1.8,7.3s-0.6,5.7-1.8,7.2s-3.3,2.3-6.3,2.3s-5.1-0.8-6.3-2.3s-1.8-4-1.8-7.2
	C198,268.9,198.6,266.4,199.8,264.8z M206.1,278.4c1.6,0,2.6-0.5,3.2-1.4c0.6-1,0.9-2.6,0.9-4.8c0-2.3-0.3-3.9-0.9-4.9
	c-0.6-1-1.6-1.5-3.2-1.5s-2.6,0.5-3.2,1.5c-0.6,1-0.9,2.7-0.9,4.9c0,2.3,0.3,3.9,0.9,4.8S204.5,278.4,206.1,278.4z M244.9,278.1
	h-0.3l-4.7-15.3h-6.7v18.6h4v-15.3h0.3l4.9,15.3h6.5v-18.6h-4V278.1z M187.7,53.5l11.6-13.4c11.9,4.1,30.3,7.4,38.2,8.7
	c-0.7-1.6-1.4-2.9-2.2-4c-1.3-2-2-2.5-2.4-2.7c-12.7-2.3-27.7-5.6-35.5-9l-17,19.9l12.1,19.2c0.2-1.2,0.7-2.2,1.5-3
	c0.7-0.8,1.7-1.4,2.7-1.7L187.7,53.5z M264.7,44.9c1.3-2,2-2.5,2.4-2.7c12.7-2.3,27.7-5.6,35.5-9L319.7,53l-12.1,19.2
	c-0.2-1.2-0.7-2.2-1.5-3c-0.7-0.8-1.7-1.4-2.7-1.7l8.8-14l-11.6-13.4c-11.9,4.1-30.3,7.4-38.2,8.7C263.2,47.4,263.9,46.1,264.7,44.9
	z M244.9,8.3c0,1.1,0.4,2.1,1.2,2.9l-4.7,2.9c-0.3-1.5-0.6-3.6-0.6-5.8c0-1.6,0.2-3.1,0.3-4.4l4.4,2.1
	C245.1,6.7,244.9,7.5,244.9,8.3z M255.1,8.3c0,1.1-0.4,2.1-1.2,2.9l4.7,2.8c0.3-1.5,0.6-3.6,0.6-5.8c0-1.5-0.2-3.1-0.3-4.4L254.4,6
	C254.9,6.7,255.1,7.5,255.1,8.3z M252.8,8.3c0,1.5-1.2,2.6-2.8,2.6c-1.5,0-2.8-1.2-2.8-2.6c0-1.5,1.2-2.6,2.8-2.6
	C251.5,5.6,252.8,6.8,252.8,8.3z M297.9,72c-0.2,0.7-0.3,1.4-0.1,2c0,0.1,0.1,0.3,0.2,0.5c0.1,0.1,0.1,0.2,0.2,0.2l0,0l0,0
	c0.1,0.1,0.1,0.1,0.1,0.2s-1.1,0.8-1.5,1c-0.8,0.4-1.8,0.8-2.7,1.1c-2,0.5-4.2,0.5-6.2,0.2s-3.9-1.1-5.7-2.1c-0.5-0.3-1-0.6-1.5-1
	c-0.2-0.1-0.3-0.2-0.5-0.4c-0.8-0.6-1.4-1-2.1-1.4c-1.5-0.8-3-0.8-4.9-0.1c-0.5,0.2-1.1,0.4-1.7,0.7c-3.5,1.5-7.4,2.6-11,1.6
	c-1.6-0.4-3.1-1.2-4.5-2.1c-1.1-0.7-2.1-1.4-3.2-2.1l-0.3-0.2c-0.3-0.2-0.3-0.3-0.3-0.4l0.1-0.2l0.1-0.3c0.4-1.1,0.8-2.2,0.9-3.3
	c0.2-1,0.2-2-0.4-2.9c-0.7-1.2-1.9-1.8-3.1-1.8c-1.2,0-2.3,0.6-3.1,1.8c-0.6,1-0.6,1.9-0.4,2.9c0.1,1.1,0.5,2.2,0.9,3.3
	c0.1,0.2,0.1,0.4,0.2,0.6c0,0.1-0.1,0.2-0.3,0.4l-0.3,0.2c-1,0.7-2.1,1.5-3.2,2.1c-1.4,0.9-2.8,1.7-4.5,2.1c-3.6,0.9-7.5-0.2-11-1.6
	c-0.6-0.3-1.2-0.5-1.7-0.7c-1.9-0.7-3.4-0.7-4.9,0.1c-0.6,0.3-1.3,0.8-2.1,1.4c-0.1,0-0.1,0.1-0.2,0.1l0,0c-0.1,0.1-0.2,0.2-0.3,0.2
	c-0.5,0.3-1,0.7-1.5,1c-1.7,1-3.6,1.8-5.7,2.1c-2,0.3-4.2,0.3-6.2-0.2c-0.9-0.2-1.8-0.6-2.7-1.1c-0.4-0.2-1.5-1-1.5-1
	s0.1-0.1,0.1-0.2c0.1-0.1,0.1-0.1,0.2-0.2c0.1-0.2,0.2-0.4,0.2-0.5c0.2-0.7,0.1-1.4-0.1-2c-0.9-2.6-4.6-3.3-6.5-1.3
	c-0.8,0.8-1,2-1,3.1c0,1.6,0.8,3,1.9,4.1c1.2,1.1,2.7,1.8,4.3,2.3c2.8,1,5.9,1.6,8.9,1.5c5.3-0.1,10.1-2.3,14-5.6
	c0.4-0.3,0.5-0.3,0.9-0.1l0,0c0,0,0.1,0,0.2,0.1h0.1c0.5,0.2,1,0.4,1.6,0.6c0.9,0.4,1.9,0.7,2.9,1c1.6,0.5,3.3,1,5,1.2
	c2,0.3,4.1,0.3,6.1,0c3.1-0.6,6-2.1,8.7-3.7l0,0c0.7-0.3,1.4-0.3,2.1,0l0,0c2.7,1.6,5.6,3.1,8.7,3.7c2,0.4,4.1,0.4,6.1,0
	c1.7-0.3,3.3-0.7,5-1.2c1-0.3,1.9-0.7,2.9-1c0.5-0.2,1-0.4,1.6-0.6c0.1,0,0.2-0.1,0.2-0.1c0.4-0.2,0.5-0.2,0.9,0.1
	c3.9,3.3,8.7,5.5,14,5.6c3,0,6-0.5,8.9-1.5c1.6-0.5,3.1-1.2,4.3-2.3c1.2-1.1,1.9-2.5,1.9-4.1c0-1.1-0.2-2.3-1-3.1
	C302.5,68.6,298.8,69.4,297.9,72z M220.9,71.1c-0.5,0.2-1,0.5-1.4,0.3c-1-0.4-0.6-1.4,0.2-1.8c0.3-0.1,0.5-0.3,0.8-0.4
	c1.9-0.8,4.6-1.3,6.6-0.5c0.6,0.2,0.8,1,0.4,1.4c-0.3,0.4-0.8,0.4-1.3,0.3H226c-0.2,0-0.4-0.1-0.6-0.1c-0.5-0.1-1-0.1-1.5,0
	c-0.9,0.1-1.8,0.3-2.6,0.6C221.2,70.9,221,71,220.9,71.1z M279.6,69.2c-1.9-0.8-4.6-1.3-6.6-0.5c-0.6,0.2-0.8,1-0.4,1.4
	c0.3,0.4,0.8,0.4,1.3,0.3h0.2c0.2,0,0.4-0.1,0.6-0.1c0.5-0.1,1-0.1,1.5,0c0.9,0.1,1.8,0.3,2.6,0.6c0.1,0.1,0.3,0.1,0.5,0.2
	c0.5,0.2,1,0.5,1.4,0.3c1-0.4,0.6-1.4-0.2-1.8C280.2,69.4,279.9,69.3,279.6,69.2z M253,60.9c-0.9-0.7-1.9-1-3-1s-2.2,0.3-3,1
	l-3.2-5.5c4.1-0.3,8.2-0.3,12.3,0L253,60.9z M239.6,60.5c-0.3,3.4-0.3,6.8,0,10.2l6-2.7c-0.2-0.6-0.3-1.2-0.4-1.9
	c-0.1-0.8-0.2-1.8,0.2-3L239.6,60.5z M260.5,70.7l-6-2.7c0.2-0.6,0.3-1.2,0.4-1.9c0.1-0.8,0.2-1.8-0.2-3l5.8-2.6
	C260.7,63.9,260.7,67.3,260.5,70.7z M236.8,68.9c0.4-1,0.5-2.2,0.2-3.3c-0.8-3.2-3.9-4.4-7.2-3.5c-0.8,0.2-1.6,0.6-2.3,1
	c-1.6,1-2.8,2.4-3.2,3.9c0.8,0,1.5,0,2.3,0.2C229.5,65.1,233.1,66.2,236.8,68.9z M270.2,62.1c0.8,0.2,1.6,0.6,2.3,1
	c1.6,1,2.8,2.4,3.2,3.9c-0.8,0-1.5,0-2.3,0.2c-3-2-6.6-0.9-10.3,1.7c-0.4-1-0.5-2.2-0.2-3.3C263.8,62.4,266.9,61.1,270.2,62.1z
	 M246,47.7c0.2,1,0.5,2,0.6,3c0.1,0.3,0.1,0.6,0.2,1l0,0l0,0c0,0.1,0.1,0.3,0.1,0.4c1-0.2,2-0.3,3-0.3c1.1,0,2.1,0.1,3,0.3l0,0V52
	l0,0c0-0.1,0.1-0.2,0.1-0.3c0.2-1,0.4-2.1,0.7-3.2c0.9-3.8,2.1-8.2,4.6-11.8c0.9-1.3,1.9-2.4,3-3.3l-2.3-2.8
	c-2.2,2.4-5.5,3.8-9.1,3.8s-6.8-1.5-9.1-3.8l-2.3,2.8c2.9,2.3,4.5,5.6,5.5,8.1C244.8,43.2,245.5,45.3,246,47.7z M255.4,52
	c0.2-1,0.4-2.1,0.6-3.1c0.9-3.8,2-7.8,4.3-11.1c1-1.5,2.2-2.8,3.8-3.7c2.1-1.2,5.8-2,7.2,0.6c1.2,2.2-0.6,4.8-3.2,4.6
	c-0.2,0-0.3,0-0.5-0.1c-0.3,0-0.6-0.1-0.9,0c-0.9,0.1-1.7,0.7-2.3,1.2c-2.6,2.3-4.2,5.7-5.5,8.8c-0.5,1.1-0.9,2.2-1.3,3.3
	c-0.1,0.2-0.1,0.4-0.2,0.7c-0.1,0.2-0.1,0.4-0.2,0.7c-0.6-0.4-1.3-0.8-2-1.1v-0.2C255.4,52.4,255.4,52.2,255.4,52z M232.4,39.2
	c0.3,0,0.5-0.1,0.8,0c2.1,0.3,3.8,2.6,4.8,4.1c1.2,1.9,2.2,3.9,3,5.9c0.5,1.2,1,2.5,1.4,3.8c0.1,0.2,0.2,0.5,0.2,0.7l0,0l0,0l0,0
	l0,0v0.1c0.6-0.4,1.2-0.7,1.9-1c0-0.2-0.1-0.4-0.1-0.6l0,0l0,0l0,0c-0.1-0.4-0.2-0.7-0.2-1.1c-0.2-1-0.4-1.9-0.6-2.9
	c-0.5-2.1-1.1-4.1-1.9-6.1c-1.3-3.3-3.2-6.7-6.6-8.4c-2.4-1.1-6.6-1.4-6.9,2C228.1,38.1,230.2,39.5,232.4,39.2z M208.8,69.4
	c-0.2-3.3,2.4-5.3,5.9-5.3c0.9,0,1.7,0.1,2.5,0.4c1.8,0.5,3.4,1.6,4.3,2.8c-0.7,0.2-1.5,0.4-2.1,0.8c-3.5-1.2-6.6,0.9-9.4,4.4
	C209.3,71.7,208.9,70.6,208.8,69.4z M290.1,72.6c0.7-0.9,1.1-2,1.2-3.1c0.2-3.3-2.4-5.3-5.9-5.3c-0.9,0-1.7,0.1-2.5,0.4
	c-1.8,0.5-3.4,1.6-4.3,2.8c0.7,0.2,1.5,0.4,2.1,0.8C284.2,67,287.3,69,290.1,72.6z M275.8,67c-0.4-1.6-0.4-4.2,0.1-7
	c0.7-4.6,3.1-8.1,3.6-8.1c0.4,0.1,1.7,4.1,1,8.7c-0.4,2.9-1.2,5.3-2.1,6.7C277.7,67.2,276.8,67,275.8,67z M224.2,67
	c0.4-1.6,0.4-4.2-0.1-7c-0.7-4.6-3.1-8.1-3.6-8.1c-0.4,0.1-1.7,4.1-1,8.7c0.4,2.9,1.2,5.3,2.1,6.7C222.4,67.2,223.3,67,224.2,67z
	 M147.9,209.9h39.5v15.3H130v-89.5h17.9V209.9z M191.6,216.1L191.6,216.1v-1.8l1.9,5.5v11.6h-50.9l-8.4-1.8h1.9l0,0h55.5V216.1z
	 M119.5,209.7L119.5,209.7l0.1-5.2l1.8,3.4v23.3h-15.2l-5.4-1.9l1.9,0.1h16.9v-19.7H119.5z M24.9,135.1h33.4l25.1,90.2H65.3
	L59.9,205H23.3L18,225.2H0L24.9,135.1z M38.8,149.6L27,189.9h29.2l-11.6-40.3L38.8,149.6L38.8,149.6z M90.4,227L90.4,227L90.4,227
	l1.3,4.5h-17l-4.2-1.8h1.9h0.7h16.2l-26-93.6l0.9,1.1l1.9,2.4L90.4,227z M96.6,203.7h18.8v21.5H96.6V203.7z M152.6,136.3l1.9,4v66.2
	h-1.9V142l0,0V136.3z M260.6,192.5L260.6,192.5L260.6,192.5c0-0.1,0.9-6.4,0-14.3c0,0,2.6,6.1,1.8,15.3l0,0l-0.9,10H229
	c-0.9-0.1-1.8-0.1-2.7-0.2c-1.5-0.1-2.9-0.5-4.3-0.8l0,0l-0.5-0.1c-0.8-0.2-1.6-0.4-2.4-0.6H219h40.7L260.6,192.5z M424,178.5
	l0.1,0.3c0,0.1,0.1,0.3,0.1,0.4c0.3,1.2,0.6,2.3,0.8,3.3c0.2,1.2,0.8,4.9,0.6,10.6c-0.6,11.4-3.1,20.4-7.5,26.7
	c-5.2,7.5-14.8,12.8-27.2,12.8c-0.7,0-6.5-0.1-7.1-0.2c0-0.1-1.3-0.3-2.6-0.5c-1.3-0.2-2.7-0.3-2.7-0.5c0.1-0.2,1.7-0.2,3.4-0.2l0,0
	c1.1,0,2.3,0,3.2-0.1c0.3,0,0.6,0,0.9,0l0,0c3.5-0.1,9.2-0.4,12-1.3c0.1,0,0.2-0.1,0.3-0.1h0.1h0.1c0.2,0,0.4-0.1,0.6-0.2
	c7.7-1.9,14.1-6,17.6-11.1c3.8-5.5,6.2-13.4,7-23.3c0.5-7.9-0.2-13.9-0.9-17.6c-0.9-4-1.9-7-1.9-7c1.3,2.5,2.3,5,3,7.3l0.1,0.1v0.1
	V178.5z M419.2,189.9c0,12-2.5,21.3-7.4,27.4c-5,6.2-13.6,9.4-25.8,9.4c-6.8,0-12.6-1-17.3-3.1c-1.9-0.9-3.7-1.9-5.2-3.1
	c-1.4-1.1-2.4-2.1-3.3-3.2c-4.9-6.2-7.4-15.4-7.4-27.4c0-12,2.6-21.2,7.6-27.3c5.1-6.1,13.7-9.3,25.5-9.3s20.4,3.1,25.5,9.3
	c1.8,2.2,3.3,4.8,4.5,7.8c1.3,3.3,2.2,7,2.7,11.2C419,184.2,419.2,187,419.2,189.9z M372,202.9c0.5,1.8,1.1,3.2,1.8,4.4
	c0.4,0.6,0.9,1.2,1.5,1.8c2.3,2.1,5.9,3.2,10.7,3.2c6.1,0,10.2-1.7,12.2-5.1c2.1-3.5,3.2-9.4,3.2-17.5c0-6.5-0.8-11.5-2.2-15
	c-0.4-0.9-0.8-1.6-1.2-2.2c-0.1-0.2-0.3-0.4-0.5-0.7c-2.3-2.8-6.2-4.2-11.5-4.2c-5.8,0-9.9,1.6-12,4.8c-2.3,3.3-3.4,9.1-3.4,17.2
	C370.6,195.1,371.1,199.5,372,202.9z M493.1,155.2v93.4h-17.4v-25.4l-2.5,0.9c-5.1,1.8-9.9,2.7-14.2,2.7c-5.6,0-10.4-0.9-14.5-2.6
	c-1.8-0.8-3.5-1.8-4.9-2.9c-1.2-0.9-2.2-1.9-3-2.8c-4.6-5.4-6.9-15-6.9-28.5c0-13.5,2.7-23.1,8.1-28.5s14.8-8.2,27.9-8.2
	c4.7,0,12,0.4,21.8,1.2L493.1,155.2z M460.8,211.7c4.4,0,8.9-0.7,13.3-2l1.5-0.5v-40.7l-1.7-0.1c-3.4-0.2-6.2-0.4-8.2-0.4
	c-7.3,0-12.2,1.7-14.7,5.1c-2.5,3.4-3.8,9.2-3.8,17.1c0,4.9,0.5,9.1,1.4,12.2c0.5,1.9,1.2,3.4,2,4.6c0.3,0.5,0.7,0.9,1.2,1.4
	C454,210.6,456.9,211.7,460.8,211.7z M498.1,161.3l-0.4-7.7l2.3,6.1v95.1h-12.4l-6.9-1.8h17.4V161.3z M254.5,223.4l-0.8,0.1
	c-11,2.1-20.9,3.2-29.4,3.2c-6.1,0-11.4-1-15.7-2.8c-1.9-0.8-3.6-1.8-5.1-3c-1.2-1-2.2-1.9-3-2.8c-4.8-5.7-7.2-14.9-7.2-27.3
	c0-24.8,10.9-37.4,32.3-37.4c14.6,0,24.2,5.5,28.6,16.4c1.1,2.8,1.9,6.1,2.3,9.7c0.2,2.2,0.4,4.2,0.4,6l-1.1,11.7H211l0.2,1.9
	c0.2,1.7,0.5,3.2,1,4.6c0.6,1.9,1.5,3.4,2.5,4.5c0.1,0.1,0.2,0.2,0.4,0.3c2.4,2.2,6.8,3.3,13,3.3c6.8,0,13.9-0.3,21.1-0.8l5-0.5
	L254.5,223.4z M214.6,171.4c-2,2.3-3.1,5.9-3.5,10.7L211,184h28.7l-0.1-1.9c-0.2-3.1-0.6-5.8-1.4-7.8c-0.4-1.1-0.9-2-1.4-2.7
	c-0.1-0.1-0.2-0.3-0.3-0.4c-2.1-2.5-5.7-3.7-10.8-3.7C220.6,167.4,216.8,168.8,214.6,171.4z M344.2,223.5l-0.7,0.2
	c-10,2-19.5,3-28.4,3c-8.1,0-14.9-1.2-20.2-3.6c-2.1-0.9-4-2.1-5.6-3.4c-1.7-1.4-3.2-3-4.4-4.7c-5.2-7.7-7.9-20.5-7.9-37.9
	c0-17.5,2.7-27,8-34.5c5.4-7.6,15.5-11.4,30.1-11.4c8.6,0,18.2,1.2,28.6,3.5l0.7,0.2l-0.7,14.1l-1-0.2c-8.6-1.4-17.3-2.2-25.9-2.2
	c-8.3,0-14,2.3-16.9,6.9c-3,4.7-4.5,10.8-4.5,24c0,8.4,0.6,15.3,1.8,20.4c0.7,2.8,1.5,5.1,2.5,6.8c0.4,0.6,0.8,1.2,1.3,1.7
	c3.1,3.4,8.3,5.2,15.4,5.2c8.6,0,17.4-0.7,26.2-2l1-0.2L344.2,223.5z M260.8,213.3l0.1,3.1l0.1,3.4l0.3,9.5l-1.5,0.3
	c-7.4,1.5-14.7,2.5-21.6,2.8c-2.3,0.1-4.6,0.2-6.8,0.2c-1.3,0-2.9-0.1-3.9-0.1c-0.3,0-0.6,0-0.9-0.1l0,0l0,0h-0.1
	c-0.2-0.1-1.4-0.3-2.6-0.4l0,0c-1.3-0.2-2.7-0.3-2.6-0.5c0-0.2,1.7-0.2,3.4-0.2l0,0c1.1,0,2.3,0,3.2-0.1h0.8
	c2.4-0.1,5.8-0.2,8.7-0.6c3.8-0.2,7.6-0.6,11.6-1.1c3.4-0.5,6.9-1,10.5-1.7l-0.2-5.8l-0.1-3l-0.3-8.5l0,0v-0.1l0,0l0,0v-0.1l0,0V209
	L260.8,213.3z M349.1,141.7l0.1-5.3h0.2l0,0c-0.1,0-0.1,0,0.1,0l1.5,3.8l-0.7,15.8l-2.1-0.3c-8.5-1.4-17.2-2.2-25.7-2.2
	c-7.9,0-13.3,0.4-16.1,4.7c-2.9,4.6-4.4,12.2-4.4,25.3c0,8.6,0.6,15.4,1.8,20.4c-0.4-0.4-0.6-0.8-0.9-1.2c-0.2-0.3-0.4-0.8-0.7-1.3
	c-0.3-0.9-0.7-2-0.9-3.2V198c-0.5-4.1-1.1-9-1.1-14.5c0-13.4,1.6-21.4,4.6-26.2c3.1-4.9,9-5.6,17.7-5.6c8.6,0,17.4,0.7,26,2.2
	L349.1,141.7c-0.1,0-0.1,0-0.1,0H349.1L349.1,141.7L349.1,141.7C349.2,141.7,349.2,141.7,349.1,141.7z M350.4,213.1l0.1,3.1l0.1,3.4
	l0.3,9.5l-1.5,0.3c-7.4,1.5-14.7,2.5-21.6,2.8c-2.3,0.1-4.6,0.2-6.8,0.2c-1.3,0-2.9-0.1-3.9-0.1c-0.3,0-0.7,0-1-0.1
	c-0.2-0.1-1.4-0.3-2.6-0.4l0,0l0,0c-1.3-0.2-2.7-0.3-2.6-0.5s1.7-0.2,3.4-0.2l0,0c1.1,0,2.3,0,3.2-0.1h0.8c2.4-0.1,5.8-0.2,8.7-0.6
	c3.8-0.2,7.6-0.6,11.6-1.1c3.4-0.5,6.9-1,10.5-1.7l-0.2-5.8l-0.1-3l-0.3-8.5l0,0l0,0l0,0v-0.1l0,0l0,0v-0.1l0,0l0,0v-1.3
	L350.4,213.1z M25.6,209.3l-5.4,20.2H3.3l-1.9-0.1l5.4,1.9H22l6-21.9L25.6,209.3L25.6,209.3z" fill="#e40039"/>
</svg>
