<svg width="400" height="78" viewBox="0 0 400 78" fill="none" xmlns="http://www.w3.org/2000/svg">
    <g id="Type=Dark text">
        <path id="Fill 12" d="M93.0469 10.9746L133.086 49.8359V11.0312H147.799V78H143.066L103.088 39.0957V77.8105H88.377V10.9746H93.0469ZM267.834 11.002C272.604 10.9701 286.208 10.9871 291.012 11.0508C294.855 11.0509 298.25 11.6871 301.197 12.9609C304.141 14.2387 306.625 15.9426 308.641 18.0781C310.659 20.2139 312.181 22.6687 313.207 25.4414C314.229 28.2139 314.742 31.0683 314.742 34C314.742 38.2716 313.703 42.1627 311.621 45.668C309.539 49.173 307.606 51.233 303.41 53.7012L314.742 77.9883H299.371L288.705 54.8848H267.881V77.9883H253.469V11.0508C258.274 11.0508 263.06 11.0338 267.834 11.002ZM72.2715 77.8867H57.5391L50.2266 62.8945C47.2346 63.3762 42.4861 64.1715 35.4121 65.4395C27.6627 66.8267 22.3828 67.8696 19.4707 68.4668L14.8672 77.8867H0L33.3809 10.9766H39.0625L72.2715 77.8867ZM400.002 77.8867H385.135L380.533 68.4668C377.621 67.8696 372.339 66.8268 364.59 65.4395C357.516 64.1715 352.767 63.3762 349.777 62.8945L342.463 77.8867H327.732L360.941 10.9766H366.621L400.002 77.8867ZM200 0C219.152 0 234.682 15.4525 234.682 34.5156C234.682 53.5767 219.152 69.0293 200 69.0293C180.848 69.0289 165.322 53.5764 165.322 34.5156C165.322 15.4528 180.848 0.000430885 200 0ZM25.334 56.457C27.7618 55.9973 30.6476 55.4608 34.0332 54.8418C38.7492 53.9819 42.486 53.3389 45.332 52.8672L36.2188 34.1836L25.334 56.457ZM354.672 52.8672C357.518 53.3389 361.253 53.982 365.967 54.8418C369.353 55.4608 372.242 55.9972 374.668 56.457L363.785 34.1836L354.672 52.8672ZM200 13.5645C188.376 13.5649 178.953 22.945 178.953 34.5156C178.953 46.0841 188.376 55.4625 200 55.4629C211.624 55.4629 221.049 46.0844 221.049 34.5156C221.049 22.9448 211.624 13.5645 200 13.5645ZM267.881 44.1367H290.914C293.924 44.1367 296.342 43.1178 298.168 41.0781C299.994 39.038 300.874 36.5829 300.811 33.7148C300.811 30.8445 299.93 28.4389 298.168 26.4922C296.404 24.5499 293.988 23.5762 290.914 23.5762H267.881V44.1367Z" fill="#1B1D36"/>
    </g>
</svg>
