<?xml version="1.0" encoding="UTF-8" standalone="no"?>
<svg
   width="401"
   height="100"
   viewBox="0 0 401 100"
   fill="none"
   version="1.1"
   id="svg4"
   sodipodi:docname="ituk_horizontal_nottu_red.svg"
   inkscape:version="1.3 (0e150ed6c4, 2023-07-21)"
   xmlns:inkscape="http://www.inkscape.org/namespaces/inkscape"
   xmlns:sodipodi="http://sodipodi.sourceforge.net/DTD/sodipodi-0.dtd"
   xmlns="http://www.w3.org/2000/svg"
   xmlns:svg="http://www.w3.org/2000/svg">
  <defs
     id="defs4" />
  <sodipodi:namedview
     id="namedview4"
     pagecolor="#505050"
     bordercolor="#ffffff"
     borderopacity="1"
     inkscape:showpageshadow="0"
     inkscape:pageopacity="0"
     inkscape:pagecheckerboard="1"
     inkscape:deskcolor="#505050"
     inkscape:zoom="1.9661448"
     inkscape:cx="225.05972"
     inkscape:cy="84.174879"
     inkscape:window-width="1920"
     inkscape:window-height="1009"
     inkscape:window-x="-8"
     inkscape:window-y="491"
     inkscape:window-maximized="1"
     inkscape:current-layer="svg4" />
  <path
     d="M 0,0 V 100 H 100 V 0 Z m 13,22 39.029297,22.533203 v 6.933594 L 13,74 V 58.398437 L 31.013672,48 13,37.599609 Z M 52.029297,74 H 87 V 87 H 52.029297 Z"
     style="clip-rule:evenodd;fill:#870042;fill-rule:evenodd"
     id="path5" />
  <path
     d="M 13,22 V 37.599609 L 31.013672,48 13,58.398437 V 74 L 52.029297,51.466797 V 44.533203 Z M 52.029297,74 V 87 H 87 V 74 Z"
     style="clip-rule:evenodd;fill:#eeeeee;fill-rule:evenodd"
     id="path8" />
  <path
     d="M243.504 17.5195V28.6446C243.18 28.097 242.792 27.6003 242.338 27.1523C241.884 26.7043 241.364 26.3055 240.779 25.957C240.493 25.7767 240.197 25.6199 239.893 25.4844C239.588 25.3491 239.273 25.2349 238.949 25.1446C238.302 24.9643 237.618 24.8751 236.896 24.8751C236.473 24.8751 236.062 24.9016 235.662 24.959C235.262 25.015 234.874 25.0989 234.498 25.2111C234.122 25.323 233.755 25.4632 233.402 25.631C233.049 25.7992 232.709 25.995 232.379 26.2189C232.049 26.443 231.737 26.6869 231.443 26.9513C231.149 27.2159 230.873 27.5 230.615 27.8049C230.357 28.1099 230.117 28.4361 229.895 28.7814C229.672 29.1269 229.466 29.4913 229.279 29.8771C229.093 30.2566 228.929 30.6481 228.789 31.0509C228.649 31.4538 228.533 31.8689 228.439 32.2951C228.346 32.7213 228.277 33.1581 228.23 33.6076C228.184 34.0571 228.16 34.5195 228.16 34.9923C228.16 35.7017 228.216 36.3891 228.328 37.0548C228.44 37.7206 228.608 38.3643 228.832 38.9865C229.068 39.5962 229.348 40.1682 229.672 40.7033C229.995 41.2384 230.363 41.737 230.773 42.1974C231.196 42.6578 231.653 43.069 232.144 43.4298C232.636 43.7908 233.163 44.1021 233.722 44.3634C234.295 44.6246 234.891 44.8207 235.513 44.9513C236.136 45.0821 236.783 45.1467 237.455 45.1467C238.127 45.1467 238.785 45.0662 239.426 44.9044C240.066 44.7427 240.691 44.4995 241.301 44.1759C241.612 44.0142 241.907 43.8343 242.185 43.6369C242.464 43.4392 242.727 43.2237 242.973 42.9904C243.218 42.7572 243.447 42.5056 243.66 42.2365C243.873 41.9674 244.069 41.68 244.25 41.3751L244.326 42.6076C244.364 42.9685 244.461 43.2956 244.623 43.588C244.785 43.8806 245.009 44.1394 245.295 44.3634C245.594 44.5876 245.932 44.7554 246.305 44.8674C246.678 44.9792 247.087 45.0355 247.535 45.0355C248.083 45.0355 248.793 44.9478 249.664 44.7736V40.7033C249.453 40.6768 249.273 40.633 249.123 40.5646C248.974 40.4962 248.855 40.4051 248.768 40.2932C248.681 40.1813 248.616 40.0324 248.573 39.8459C248.529 39.6592 248.506 39.4354 248.506 39.1741V17.5198L243.504 17.5195ZM294.949 17.5195V44.7735H299.951V38.9492L302.604 36.336L308.314 44.7735H313.654L305.852 33.5352L313.131 25.2481H307.83L299.951 34.0215V17.5195H294.949ZM124.672 18.2676V44.7735H129.824V18.2676H124.672ZM133.109 18.2676V22.7832H141.584V44.7735H146.699V22.7832H155.174V18.2676H133.109ZM172.607 18.8633V25.2109H170.031V29.0567H172.607V40.293C172.607 40.8654 172.663 41.3849 172.775 41.8516C172.887 42.3182 173.055 42.7329 173.279 43.0937C173.516 43.4422 173.79 43.7429 174.102 43.998C174.413 44.2531 174.761 44.4632 175.146 44.625C175.532 44.7867 175.936 44.9073 176.359 44.9882C176.782 45.0691 177.225 45.1092 177.686 45.1092C178.382 45.1092 179.066 45.034 179.738 44.8847C180.435 44.7603 181.082 44.5872 181.68 44.3632C182.277 44.1394 182.788 43.9399 183.211 43.7656L182.203 39.8085C181.904 39.9332 181.506 40.0817 181.008 40.2558C180.51 40.43 179.999 40.5176 179.477 40.5176C179.215 40.5176 178.976 40.4799 178.758 40.4062C178.54 40.3313 178.344 40.2195 178.17 40.0702C177.996 39.9209 177.863 39.7251 177.77 39.4823C177.676 39.2396 177.624 38.9491 177.611 38.6131V29.0565H181.717V25.2108H177.611V18.8632L172.607 18.8633ZM284.01 24.8379C283.213 24.8379 282.468 24.9025 281.771 25.0333C281.075 25.1641 280.427 25.3599 279.83 25.6212C279.245 25.8824 278.722 26.1975 278.262 26.5645C277.801 26.9315 277.402 27.3515 277.066 27.8244C276.743 28.2848 276.5 28.7921 276.338 29.3458C276.176 29.8996 276.096 30.4996 276.096 31.1466C276.096 31.6817 276.155 32.1697 276.273 32.6115C276.392 33.0532 276.568 33.4486 276.805 33.797C277.053 34.133 277.361 34.4408 277.728 34.7208C278.095 35.0009 278.522 35.2527 279.008 35.4767C279.978 35.9247 281.185 36.3866 282.629 36.8595C283.5 37.1086 284.235 37.3323 284.832 37.5314C285.143 37.6308 285.418 37.7393 285.654 37.8576C285.891 37.9759 286.088 38.1036 286.25 38.2403C286.412 38.3647 286.534 38.517 286.615 38.6974C286.696 38.8776 286.736 39.086 286.736 39.3224C286.736 39.6709 286.661 39.9771 286.511 40.2384C286.362 40.4996 286.138 40.7166 285.839 40.8908C285.553 41.065 285.217 41.1961 284.832 41.2833C284.446 41.3703 284.01 41.4141 283.525 41.4141C283.002 41.4141 282.467 41.3582 281.92 41.2463C281.372 41.1344 280.812 40.9662 280.24 40.7424C279.68 40.5183 279.113 40.2315 278.541 39.883C277.968 39.5346 277.389 39.1235 276.804 38.6506L275.013 41.8986C275.561 42.4337 276.161 42.9044 276.814 43.3088C277.467 43.7132 278.174 44.0526 278.933 44.3263C279.692 44.6 280.471 44.8047 281.267 44.9416C282.064 45.0784 282.879 45.1468 283.713 45.1468C284.31 45.1468 284.877 45.1128 285.414 45.0452C285.95 44.9767 286.455 44.8736 286.931 44.7367C287.407 44.5999 287.854 44.4283 288.269 44.2231C288.684 44.0178 289.069 43.7781 289.423 43.5043C289.778 43.2307 290.089 42.9306 290.355 42.6039C290.621 42.2774 290.842 41.9249 291.019 41.5453C291.196 41.1658 291.331 40.759 291.42 40.3266C291.508 39.8942 291.552 39.435 291.552 38.9497C291.552 38.3524 291.484 37.8206 291.347 37.3539C291.21 36.8873 291.003 36.4868 290.73 36.1508C290.456 35.8023 290.115 35.4803 289.704 35.1879C289.294 34.8954 288.814 34.6314 288.267 34.3949C287.197 33.9221 285.876 33.4621 284.308 33.0141C283.536 32.765 282.877 32.5413 282.329 32.3422C281.807 32.143 281.41 31.9193 281.136 31.6704C281.012 31.5336 280.917 31.3706 280.855 31.184C280.792 30.9973 280.763 30.7857 280.763 30.5493C280.763 30.2881 280.797 30.0589 280.865 29.8598C280.933 29.6606 281.036 29.4928 281.173 29.3559C281.322 29.2066 281.49 29.0789 281.677 28.9731C281.864 28.8673 282.068 28.7834 282.292 28.721C282.765 28.5967 283.264 28.5335 283.786 28.5335C284.247 28.5335 284.703 28.5808 285.157 28.6741C285.612 28.7675 286.063 28.9073 286.511 29.094C286.959 29.2683 287.419 29.4957 287.892 29.7757C288.365 30.0558 288.851 30.388 289.349 30.7737L291.364 27.5999C290.854 27.1146 290.315 26.6984 289.749 26.3499C289.183 26.0015 288.59 25.7216 287.968 25.5101C287.346 25.286 286.704 25.1182 286.044 25.0062C285.385 24.8943 284.707 24.8379 284.01 24.8379ZM194.672 24.8757C194.143 24.8757 193.631 24.9059 193.137 24.9638C192.642 25.0227 192.164 25.1112 191.703 25.2295C191.243 25.3478 190.799 25.4956 190.373 25.6728C189.947 25.8501 189.538 26.0575 189.147 26.2939C188.761 26.5241 188.397 26.7748 188.055 27.0439C187.713 27.313 187.392 27.6011 187.094 27.9091C186.795 28.2172 186.517 28.5447 186.262 28.8916C186.007 29.2385 185.774 29.6054 185.563 29.9912C185.357 30.377 185.177 30.7727 185.023 31.1787C184.869 31.5847 184.741 32.0006 184.639 32.4267C184.536 32.853 184.46 33.2889 184.408 33.7354C184.357 34.1818 184.33 34.6378 184.33 35.1045C184.33 35.7764 184.39 36.4343 184.508 37.0751C184.626 37.716 184.803 38.3404 185.039 38.9502C185.288 39.5475 185.587 40.1143 185.936 40.6494C186.284 41.1845 186.683 41.6883 187.131 42.1611C187.579 42.6216 188.074 43.0342 188.615 43.4013C189.157 43.7683 189.744 44.0904 190.379 44.3642C191.014 44.6254 191.685 44.8215 192.395 44.9521C193.104 45.0829 193.851 45.1475 194.635 45.1475C195.356 45.1475 196.047 45.095 196.707 44.9892C197.367 44.8833 197.994 44.7242 198.592 44.5126C199.189 44.2884 199.745 44.0245 200.262 43.7196C200.778 43.4146 201.256 43.0702 201.691 42.6845C202.139 42.2987 202.533 41.884 202.875 41.4423C203.217 41.0005 203.508 40.5299 203.744 40.0321L199.451 38.8388C199.289 39.237 199.055 39.5973 198.75 39.9208C198.445 40.2443 198.069 40.5313 197.621 40.7802C197.186 41.0168 196.734 41.1932 196.268 41.3114C195.801 41.4297 195.318 41.4891 194.82 41.4891C194.385 41.4891 193.963 41.4419 193.553 41.3485C193.142 41.2551 192.743 41.1153 192.357 40.9286C191.984 40.7294 191.641 40.4863 191.33 40.2001C191.019 39.914 190.739 39.5851 190.49 39.2117C190.254 38.8383 190.065 38.4344 189.922 37.9989C189.779 37.5633 189.683 37.0963 189.633 36.5985H204.752C204.777 36.3993 204.801 36.1511 204.826 35.8524C204.851 35.5289 204.863 35.2174 204.863 34.9188C204.863 34.477 204.838 34.0422 204.787 33.616C204.736 33.1899 204.659 32.7709 204.557 32.3602C204.454 31.9495 204.326 31.5463 204.172 31.1512C204.018 30.7561 203.838 30.3706 203.633 29.9911C203.434 29.6053 203.211 29.2383 202.967 28.8914C202.723 28.5445 202.455 28.217 202.166 27.909C201.877 27.601 201.565 27.3129 201.23 27.0438C200.896 26.7747 200.54 26.524 200.16 26.2938C199.781 26.0572 199.381 25.85 198.963 25.6727C198.544 25.4955 198.106 25.3476 197.648 25.2293C197.191 25.111 196.715 25.023 196.219 24.9636C195.722 24.9047 195.207 24.8757 194.672 24.8757ZM215.84 24.8757C215.093 24.8757 214.362 24.9282 213.647 25.0341C212.931 25.1399 212.231 25.299 211.547 25.5107C210.875 25.7223 210.208 25.9863 209.549 26.3036C208.889 26.6211 208.237 26.9918 207.59 27.415L209.195 30.7001C209.73 30.3391 210.252 30.0207 210.762 29.7469C211.272 29.4733 211.771 29.2442 212.256 29.0575C212.741 28.8708 213.24 28.731 213.75 28.6376C214.26 28.5442 214.781 28.497 215.316 28.497C216.038 28.497 216.672 28.5809 217.213 28.7491C217.484 28.833 217.731 28.9377 217.957 29.0635C218.183 29.1894 218.384 29.3368 218.564 29.505C218.751 29.6728 218.915 29.8599 219.055 30.0636C219.195 30.2673 219.313 30.488 219.406 30.7276C219.5 30.9672 219.568 31.2257 219.615 31.5011C219.662 31.7762 219.685 32.0688 219.685 32.3799V33.4249C219.374 33.288 219.035 33.1708 218.668 33.0714C218.301 32.972 217.905 32.8897 217.482 32.8273C216.636 32.703 215.802 32.6417 214.98 32.6417C214.159 32.6417 213.386 32.7064 212.658 32.8371C211.93 32.9679 211.248 33.1637 210.613 33.425C209.979 33.6862 209.412 34.0048 208.914 34.3782C208.416 34.7516 207.988 35.1799 207.627 35.6653C207.453 35.9019 207.301 36.1488 207.17 36.4055C207.039 36.6621 206.929 36.9274 206.842 37.2043C206.668 37.7581 206.582 38.3529 206.582 38.9875C206.582 39.5724 206.654 40.1305 206.797 40.6594C206.94 41.1882 207.153 41.6884 207.439 42.1613C207.738 42.6217 208.09 43.0364 208.494 43.4036C208.899 43.7705 209.357 44.0907 209.867 44.3645C210.39 44.6256 210.942 44.8217 211.527 44.9524C212.112 45.0831 212.73 45.1478 213.377 45.1478C214.036 45.1478 214.689 45.0744 215.336 44.9251C215.983 44.7759 216.623 44.5498 217.258 44.2513C217.892 43.9527 218.475 43.5924 219.004 43.1693C219.533 42.7462 220.009 42.2617 220.432 41.7142L220.543 42.722C220.605 43.0455 220.715 43.3447 220.871 43.6185C221.026 43.8921 221.227 44.1406 221.476 44.3646C221.737 44.5887 222.06 44.7565 222.439 44.8685C222.819 44.9803 223.256 45.0367 223.754 45.0367C224.002 45.0367 224.302 45.014 224.65 44.9626C225.024 44.9127 225.435 44.8496 225.883 44.7751V40.7048C225.671 40.6783 225.487 40.6345 225.332 40.5661C225.176 40.4977 225.048 40.4066 224.949 40.2947C224.862 40.1829 224.797 40.0339 224.754 39.8474C224.71 39.6607 224.687 39.4369 224.687 39.1756V32.9412C224.687 32.2941 224.639 31.6836 224.54 31.1111C224.442 30.5387 224.295 30.0034 224.099 29.5056C223.903 29.0079 223.659 28.5479 223.365 28.1248C223.071 27.7017 222.727 27.315 222.335 26.9666C221.95 26.6181 221.525 26.3139 221.062 26.0525C220.598 25.7914 220.095 25.5725 219.554 25.3983C219.013 25.224 218.433 25.0947 217.814 25.0076C217.195 24.9203 216.537 24.8757 215.84 24.8757ZM323.809 24.8757C323.012 24.8757 322.255 24.9438 321.539 25.081C320.824 25.2178 320.15 25.4226 319.516 25.6962C318.881 25.9574 318.291 26.2725 317.75 26.6396C317.209 27.0066 316.716 27.4264 316.268 27.8993C315.832 28.3721 315.445 28.8795 315.109 29.4208C314.773 29.9621 314.486 30.5377 314.25 31.1474C314.013 31.7571 313.837 32.3851 313.719 33.0321C313.6 33.6792 313.541 34.3458 313.541 35.0302C313.541 35.7021 313.6 36.358 313.719 36.9989C313.837 37.6398 314.014 38.2661 314.25 38.8759C314.487 39.4856 314.773 40.0611 315.109 40.6024C315.445 41.1437 315.832 41.6511 316.268 42.1239C316.716 42.5968 317.209 43.0201 317.75 43.3935C318.291 43.7669 318.881 44.0904 319.516 44.3642C320.15 44.6253 320.824 44.8214 321.539 44.952C322.255 45.0828 323.012 45.1474 323.809 45.1474C324.605 45.1474 325.361 45.0828 326.076 44.952C326.792 44.8212 327.467 44.6255 328.102 44.3642C328.736 44.0905 329.32 43.7668 329.855 43.3935C330.391 43.02 330.877 42.5968 331.313 42.1239C331.761 41.6511 332.152 41.1437 332.488 40.6024C332.824 40.0611 333.104 39.4856 333.328 38.8759C333.565 38.2661 333.741 37.6398 333.859 36.9989C333.978 36.358 334.037 35.7021 334.037 35.0302C334.037 34.3458 333.978 33.6792 333.859 33.0321C333.741 32.3851 333.565 31.7571 333.328 31.1474C333.104 30.5377 332.824 29.9621 332.488 29.4208C332.152 28.8795 331.761 28.3721 331.313 27.8993C330.865 27.4264 330.369 27.0067 329.828 26.6396C329.287 26.2726 328.699 25.9575 328.065 25.6962C327.442 25.4225 326.776 25.2178 326.066 25.081C325.357 24.9441 324.605 24.8757 323.809 24.8757ZM349.68 24.8757C349.12 24.8757 348.572 24.9158 348.037 24.9966C347.502 25.0775 346.979 25.1981 346.469 25.3598C345.971 25.5091 345.502 25.6966 345.061 25.9204C344.619 26.1445 344.204 26.405 343.818 26.7036C343.433 26.9898 343.081 27.3119 342.764 27.6665C342.446 28.021 342.163 28.4094 341.914 28.8325V25.2115H337.396V44.7739H342.4V33.3501C342.525 32.9519 342.686 32.5774 342.885 32.229C343.084 31.8805 343.322 31.5569 343.596 31.2583C343.869 30.9473 344.158 30.6709 344.463 30.4282C344.768 30.1856 345.088 29.9774 345.424 29.8032C345.772 29.629 346.119 29.4979 346.461 29.4107C346.803 29.3237 347.141 29.2799 347.477 29.2799C347.719 29.2799 347.95 29.3026 348.166 29.3483C348.382 29.3933 348.586 29.4613 348.775 29.5513C348.965 29.6416 349.141 29.7538 349.305 29.8892C349.468 30.0245 349.617 30.1832 349.754 30.3637C349.891 30.544 350.011 30.7495 350.113 30.9829C350.216 31.2161 350.303 31.4779 350.371 31.7641C350.508 32.3365 350.576 33.0134 350.576 33.7973V44.7739H355.578V32.5649C355.578 31.6192 355.493 30.6869 355.319 29.7661C355.244 29.3057 355.133 28.8701 354.991 28.4594C354.847 28.0488 354.671 27.6622 354.459 27.3013C354.26 26.9279 354.012 26.5956 353.713 26.3032C353.415 26.0106 353.065 25.7589 352.666 25.5473C352.281 25.3232 351.84 25.1555 351.342 25.0435C350.844 24.9316 350.289 24.8757 349.68 24.8757ZM372.229 24.8757C371.669 24.8757 371.121 24.9158 370.586 24.9966C370.051 25.0775 369.53 25.1981 369.02 25.3598C368.522 25.5091 368.051 25.6966 367.609 25.9204C367.168 26.1445 366.753 26.405 366.367 26.7036C365.981 26.9898 365.63 27.3119 365.313 27.6665C364.995 28.021 364.714 28.4094 364.465 28.8325V25.2115H359.947V44.7739H364.949V33.3501C365.074 32.9519 365.236 32.5774 365.436 32.229C365.635 31.8805 365.871 31.5569 366.145 31.2583C366.418 30.9473 366.707 30.6709 367.012 30.4282C367.317 30.1856 367.637 29.9774 367.973 29.8032C368.321 29.629 368.668 29.4979 369.01 29.4107C369.352 29.3237 369.691 29.2799 370.027 29.2799C370.27 29.2799 370.499 29.3026 370.715 29.3483C370.931 29.3933 371.134 29.4613 371.324 29.5513C371.514 29.6416 371.69 29.7538 371.854 29.8892C372.017 30.0245 372.168 30.1832 372.305 30.3637C372.442 30.544 372.561 30.7495 372.664 30.9829C372.767 31.2161 372.852 31.4779 372.92 31.7641C373.057 32.3365 373.125 33.0134 373.125 33.7973V44.7739H378.129V32.5649C378.129 31.6192 378.042 30.6869 377.867 29.7661C377.793 29.3057 377.684 28.8701 377.541 28.4594C377.398 28.0488 377.219 27.6622 377.008 27.3013C376.809 26.9279 376.56 26.5956 376.262 26.3032C375.963 26.0106 375.615 25.7589 375.217 25.5473C374.831 25.3232 374.388 25.1555 373.891 25.0435C373.393 24.9316 372.838 24.8757 372.229 24.8757ZM390.41 24.8757C389.664 24.8757 388.932 24.9282 388.217 25.0341C387.501 25.1399 386.802 25.299 386.117 25.5107C385.445 25.7223 384.779 25.9863 384.119 26.3036C383.46 26.6207 382.807 26.9918 382.16 27.415L383.766 30.7001C384.301 30.3391 384.824 30.0207 385.334 29.7469C385.844 29.4733 386.341 29.2442 386.826 29.0575C387.311 28.8708 387.81 28.731 388.32 28.6376C388.831 28.5442 389.354 28.497 389.889 28.497C390.61 28.497 391.242 28.5809 391.783 28.7491C392.054 28.833 392.302 28.9377 392.527 29.0635C392.753 29.1894 392.956 29.3368 393.137 29.505C393.323 29.6728 393.487 29.8599 393.627 30.0636C393.767 30.2673 393.883 30.488 393.977 30.7276C394.07 30.9672 394.139 31.2257 394.186 31.5011C394.232 31.7762 394.256 32.0688 394.256 32.3799V33.4249C393.945 33.288 393.605 33.1708 393.238 33.0714C392.871 32.972 392.476 32.8897 392.053 32.8273C391.207 32.703 390.374 32.6417 389.553 32.6417C388.731 32.6417 387.956 32.7064 387.229 32.8371C386.501 32.9679 385.818 33.1637 385.184 33.425C384.549 33.6862 383.984 34.0048 383.486 34.3782C382.989 34.7516 382.558 35.1799 382.197 35.6653C382.023 35.9019 381.871 36.1488 381.74 36.4055C381.609 36.6621 381.501 36.9274 381.414 37.2043C381.24 37.7581 381.153 38.3529 381.153 38.9875C381.153 39.5724 381.224 40.1305 381.367 40.6594C381.51 41.1882 381.724 41.6885 382.01 42.1613C382.308 42.6217 382.66 43.0364 383.064 43.4036C383.469 43.7705 383.927 44.0907 384.438 44.3645C384.96 44.6256 385.515 44.8217 386.1 44.9524C386.684 45.0831 387.3 45.1478 387.947 45.1478C388.607 45.1478 389.259 45.0744 389.906 44.9251C390.553 44.7759 391.195 44.5521 391.83 44.2532C392.465 43.9546 393.045 43.5924 393.574 43.1693C394.103 42.7462 394.579 42.2617 395.002 41.7142L395.115 42.722C395.178 43.0455 395.286 43.3447 395.441 43.6185C395.597 43.8921 395.8 44.1406 396.049 44.3646C396.31 44.5887 396.63 44.7565 397.01 44.8685C397.389 44.9803 397.828 45.0367 398.326 45.0367C398.575 45.0367 398.872 45.014 399.221 44.9626C399.594 44.9127 400.005 44.8496 400.453 44.7751V40.7067C400.242 40.6803 400.058 40.6345 399.902 40.5661C399.747 40.4977 399.619 40.4067 399.52 40.2948C399.433 40.1829 399.368 40.034 399.324 39.8475C399.281 39.6608 399.258 39.437 399.258 39.1757V32.9413C399.258 32.2942 399.209 31.6836 399.111 31.1112C399.014 30.5388 398.866 30.0035 398.67 29.5058C398.474 29.008 398.23 28.548 397.936 28.1249C397.642 27.7018 397.298 27.3151 396.906 26.9667C396.521 26.6182 396.096 26.3139 395.633 26.0526C395.169 25.7914 394.666 25.5725 394.125 25.3983C393.584 25.2241 393.004 25.0948 392.385 25.0077C391.766 24.9204 391.107 24.8757 390.41 24.8757ZM253.248 25.2117V37.4558C253.248 38.0842 253.282 38.6755 253.346 39.2293C253.411 39.783 253.51 40.301 253.64 40.7801C253.771 41.2592 253.935 41.6999 254.131 42.1043C254.327 42.5087 254.555 42.8761 254.816 43.2059C255.077 43.5294 255.369 43.8128 255.691 44.0555C256.013 44.2981 256.365 44.5011 256.748 44.6629C257.13 44.8246 257.545 44.9452 257.988 45.0261C258.431 45.1069 258.904 45.147 259.408 45.147C260.229 45.147 261.016 45.0631 261.769 44.8949C262.522 44.7267 263.241 44.475 263.926 44.139C264.268 43.9648 264.595 43.7721 264.906 43.559C265.217 43.3458 265.513 43.1118 265.793 42.8598C266.073 42.6077 266.337 42.3362 266.586 42.0453C266.834 41.7543 267.067 41.4454 267.285 41.1156L267.398 42.684C267.448 43.0449 267.553 43.3685 267.715 43.6547C267.876 43.9408 268.095 44.1892 268.369 44.4008C268.655 44.6 268.98 44.7485 269.347 44.848C269.714 44.9474 270.122 44.9985 270.57 44.9985C270.844 44.9985 271.143 44.972 271.467 44.9221C271.815 44.8957 272.238 44.8484 272.736 44.7736V40.7033C272.524 40.6768 272.341 40.633 272.185 40.5646C272.03 40.4962 271.902 40.4051 271.803 40.2932C271.715 40.1813 271.651 40.0324 271.607 39.8459C271.564 39.6592 271.541 39.4354 271.541 39.1741V25.2112H266.539V37.344C266.352 37.7422 266.144 38.106 265.914 38.4358C265.683 38.7657 265.432 39.0612 265.158 39.3225C264.897 39.5837 264.618 39.8148 264.326 40.0139C264.033 40.2131 263.725 40.3809 263.402 40.5178C263.091 40.6422 262.778 40.7347 262.46 40.7971C262.143 40.8595 261.821 40.8909 261.498 40.8909C261.23 40.8909 260.979 40.8682 260.744 40.8206C260.509 40.7741 260.292 40.7049 260.089 40.6115C259.887 40.5182 259.7 40.3999 259.531 40.2601C259.361 40.1202 259.209 39.9584 259.072 39.7718C258.935 39.579 258.815 39.3632 258.712 39.1253C258.61 38.8872 258.523 38.6252 258.455 38.3421C258.318 37.7759 258.249 37.1199 258.249 36.3733V25.2112L253.248 25.2117ZM194.598 28.4969C195.058 28.4969 195.497 28.5494 195.914 28.6552C196.331 28.7611 196.726 28.9201 197.1 29.1318C197.473 29.3309 197.809 29.5741 198.107 29.8603C198.406 30.1464 198.667 30.4753 198.891 30.8486C199.127 31.2095 199.318 31.6048 199.461 32.0341C199.604 32.4634 199.7 32.927 199.75 33.4247H189.52C189.569 32.927 189.664 32.4634 189.801 32.0341C189.938 31.6048 190.118 31.2094 190.342 30.8486C190.578 30.4752 190.846 30.1465 191.145 29.8603C191.443 29.5742 191.772 29.3309 192.133 29.1318C192.506 28.9201 192.898 28.761 193.309 28.6552C193.719 28.5494 194.15 28.4969 194.598 28.4969ZM238.465 29.1316C238.801 29.1316 239.137 29.1755 239.473 29.2624C239.809 29.3493 240.144 29.4808 240.48 29.655C240.816 29.8167 241.137 30.0091 241.441 30.2331C241.746 30.4572 242.035 30.7125 242.309 30.9987C242.582 31.2848 242.82 31.5892 243.02 31.9128C243.219 32.2363 243.379 32.5792 243.504 32.9401V37.6061C243.33 38.079 243.069 38.5268 242.721 38.9499C242.397 39.3481 242.01 39.6961 241.563 39.9948C241.139 40.2688 240.679 40.4926 240.182 40.6667C239.709 40.8159 239.237 40.8912 238.764 40.8912C238.378 40.8912 238.003 40.8533 237.643 40.7796C237.282 40.7048 236.934 40.5929 236.598 40.4436C236.274 40.2944 235.97 40.116 235.684 39.9105C235.398 39.7052 235.13 39.4725 234.881 39.2112C234.632 38.95 234.41 38.6665 234.217 38.3616C234.024 38.0566 233.86 37.7296 233.723 37.3812C233.598 37.0203 233.506 36.6513 233.443 36.2718C233.381 35.8923 233.35 35.502 233.35 35.1038C233.35 34.7056 233.376 34.3174 233.434 33.9378C233.489 33.5583 233.573 33.1873 233.686 32.8265C233.81 32.4655 233.959 32.1262 234.133 31.8089C234.307 31.4914 234.507 31.196 234.731 30.9222C234.967 30.6486 235.222 30.4036 235.496 30.1859C235.77 29.9682 236.062 29.7773 236.373 29.6156C236.684 29.4538 237.015 29.3332 237.363 29.2524C237.712 29.1715 238.079 29.1316 238.465 29.1316ZM323.809 29.1316C324.281 29.1316 324.733 29.1928 325.162 29.3172C325.591 29.4415 325.999 29.629 326.385 29.8777C326.771 30.1268 327.115 30.4257 327.42 30.7742C327.725 31.1226 327.989 31.5216 328.213 31.9695C328.449 32.4175 328.628 32.8933 328.746 33.3973C328.864 33.9012 328.922 34.433 328.922 34.9929C328.922 35.5653 328.864 36.1058 328.746 36.616C328.628 37.1262 328.449 37.6055 328.213 38.0535C327.989 38.489 327.725 38.8809 327.42 39.2293C327.115 39.5777 326.771 39.884 326.385 40.1453C325.999 40.3944 325.591 40.5794 325.162 40.7039C324.733 40.8282 324.281 40.8913 323.809 40.8913C323.323 40.8913 322.861 40.8282 322.426 40.7039C321.99 40.5795 321.581 40.3943 321.195 40.1453C320.81 39.8966 320.463 39.6008 320.158 39.2586C319.853 38.9165 319.589 38.5261 319.365 38.0906C319.141 37.6426 318.973 37.1653 318.861 36.6551C318.749 36.1449 318.694 35.6025 318.694 35.0301C318.694 34.4577 318.749 33.9188 318.861 33.4148C318.973 32.9109 319.141 32.4422 319.365 32.0066C319.589 31.5586 319.853 31.1598 320.158 30.8113C320.463 30.4628 320.81 30.1637 321.195 29.9148C321.581 29.6533 321.99 29.4576 322.426 29.3269C322.861 29.1962 323.323 29.1316 323.809 29.1316ZM155.771 32.2684V36.784H167.082V32.2684H155.771ZM215.766 35.5144C216.388 35.5144 217.047 35.5897 217.744 35.739C218.441 35.8633 219.088 36.0504 219.686 36.2995V38.278C219.686 38.5271 219.598 38.8016 219.424 39.1003C219.25 39.3988 219.026 39.6961 218.752 39.9948C218.528 40.2064 218.269 40.4023 217.977 40.5827C217.684 40.763 217.359 40.9296 216.998 41.0788C216.637 41.2156 216.272 41.3169 215.904 41.3853C215.537 41.4537 215.168 41.4889 214.795 41.4889C214.434 41.4889 214.098 41.4548 213.787 41.3853C213.476 41.3169 213.189 41.2156 212.928 41.0788C212.667 40.942 212.436 40.7825 212.237 40.6022C212.037 40.422 211.87 40.2188 211.733 39.9948C211.596 39.7707 211.494 39.5418 211.426 39.3053C211.358 39.0687 211.323 38.8257 211.323 38.5768C211.323 38.3467 211.349 38.1274 211.401 37.9205C211.452 37.7138 211.528 37.5182 211.631 37.3346C211.734 37.1509 211.862 36.9793 212.016 36.819C212.17 36.6588 212.35 36.5106 212.555 36.3737C212.978 36.0876 213.458 35.8723 213.993 35.7292C214.528 35.5859 215.119 35.5144 215.766 35.5144ZM390.336 35.5144C390.958 35.5144 391.618 35.5897 392.314 35.739C393.011 35.8633 393.659 36.0504 394.256 36.2995V38.278C394.256 38.5271 394.168 38.8016 393.994 39.1003C393.82 39.3988 393.596 39.6961 393.322 39.9948C393.098 40.2064 392.841 40.4023 392.549 40.5827C392.256 40.763 391.929 40.9296 391.568 41.0788C391.207 41.2156 390.843 41.3169 390.476 41.3853C390.109 41.4537 389.738 41.4889 389.365 41.4889C389.004 41.4889 388.668 41.4548 388.357 41.3853C388.046 41.3169 387.759 41.2156 387.498 41.0788C387.237 40.942 387.008 40.7825 386.808 40.6022C386.609 40.422 386.441 40.2188 386.305 39.9948C386.168 39.7707 386.065 39.5417 385.996 39.3053C385.927 39.0687 385.892 38.8257 385.892 38.5768C385.892 38.3467 385.919 38.1274 385.97 37.9205C386.022 37.7138 386.098 37.5182 386.201 37.3346C386.304 37.1509 386.432 36.9793 386.586 36.819C386.74 36.6588 386.919 36.5106 387.125 36.3737C387.548 36.0876 388.027 35.8723 388.562 35.7292C389.097 35.5859 389.689 35.5144 390.336 35.5144ZM147.221 54.8543V77.5906C147.221 77.9764 147.248 78.3402 147.301 78.6824C147.354 79.0248 147.433 79.3447 147.539 79.6433C147.645 79.9419 147.777 80.2183 147.936 80.4734C148.094 80.7286 148.279 80.963 148.49 81.1746C148.708 81.3798 148.948 81.5597 149.209 81.7137C149.47 81.8679 149.754 81.9956 150.059 82.0984C150.364 82.2012 150.691 82.2775 151.039 82.3289C151.388 82.3804 151.756 82.4072 152.148 82.4072C152.87 82.4072 153.68 82.3199 154.576 82.1457C155.024 82.0584 155.444 81.9517 155.836 81.8274C156.228 81.703 156.592 81.5594 156.928 81.3977L156.256 77.5911C155.932 77.7404 155.56 77.8647 155.137 77.9641C154.714 78.0635 154.303 78.1127 153.904 78.1127C153.643 78.1127 153.408 78.0748 153.203 78.0011C152.998 77.9267 152.821 77.8144 152.672 77.6652C152.523 77.5034 152.411 77.2708 152.336 76.9659C152.261 76.6609 152.225 76.2831 152.225 75.8351V54.8547L147.221 54.8543ZM159.094 54.8543V59.8191H164.096V54.8543H159.094ZM181.904 54.8543C181.904 54.9042 181.853 55.0792 181.754 55.3777C181.679 55.6763 181.506 55.9736 181.232 56.2723C181.096 56.4216 180.917 56.5334 180.699 56.6083C180.481 56.6831 180.224 56.7216 179.926 56.7216C179.627 56.7216 179.344 56.6876 179.076 56.6181C178.809 56.5496 178.557 56.4465 178.32 56.3097C177.872 56.0111 177.398 55.7138 176.9 55.4152C176.652 55.2659 176.37 55.1539 176.053 55.0791C175.735 55.0043 175.384 54.9657 174.998 54.9657C174.587 54.9657 174.208 55.0168 173.859 55.1162C173.511 55.2156 173.192 55.3645 172.906 55.5634C172.633 55.7626 172.384 55.9829 172.16 56.2255C171.936 56.4682 171.737 56.7342 171.563 57.0204C171.239 57.568 171.003 58.1013 170.854 58.624C170.704 59.1466 170.629 59.5211 170.629 59.7451H173.393C173.393 59.7186 173.417 59.5572 173.467 59.2587C173.541 58.9601 173.702 58.6751 173.951 58.4013C174.088 58.252 174.26 58.1401 174.465 58.0653C174.67 57.9909 174.91 57.9519 175.184 57.9519C175.457 57.9519 175.72 57.9859 175.969 58.0554C176.218 58.1239 176.454 58.2271 176.678 58.3639C177.126 58.6375 177.61 58.9227 178.133 59.2213C178.407 59.3581 178.706 59.4613 179.029 59.5297C179.353 59.5981 179.701 59.6333 180.074 59.6333C180.51 59.6333 180.909 59.5788 181.27 59.473C181.63 59.3672 181.954 59.2099 182.24 58.9984C182.539 58.7867 182.807 58.5559 183.043 58.307C183.279 58.0579 183.484 57.7905 183.658 57.5043C184.032 56.907 184.294 56.3595 184.443 55.8617C184.593 55.3638 184.666 55.0279 184.666 54.8538L181.904 54.8543ZM214.906 54.8543V59.8191H219.91V54.8543H214.906ZM224.389 54.8543V77.5906C224.389 77.9764 224.415 78.3402 224.469 78.6824C224.522 79.0248 224.601 79.3447 224.707 79.6433C224.813 79.9419 224.945 80.2183 225.104 80.4734C225.262 80.7286 225.447 80.963 225.658 81.1746C225.876 81.3798 226.116 81.5597 226.377 81.7137C226.638 81.8679 226.922 81.9956 227.227 82.0984C227.532 82.2012 227.859 82.2775 228.207 82.3289C228.556 82.3804 228.925 82.4072 229.317 82.4072C230.038 82.4072 230.848 82.3199 231.744 82.1457C232.192 82.0584 232.612 81.9517 233.004 81.8274C233.396 81.703 233.76 81.5594 234.096 81.3977L233.424 77.5911C233.101 77.7404 232.728 77.8647 232.305 77.9641C231.882 78.0635 231.471 78.1127 231.072 78.1127C230.811 78.1127 230.577 78.0748 230.371 78.0011C230.166 77.9267 229.989 77.8144 229.84 77.6652C229.691 77.5034 229.579 77.2708 229.504 76.9659C229.429 76.6609 229.393 76.2831 229.393 75.8351V54.8547L224.389 54.8543ZM276.133 54.8543V82.1082H281.137V76.284L283.787 73.6707L289.498 82.1082H294.838L287.035 70.8699L294.314 62.5828H289.014L281.137 71.3562V54.8543H276.133ZM127.473 55.0788V59.5202H131.615V55.0788H127.473ZM134.641 55.0788V59.5202H138.783V55.0788H134.641ZM265.195 62.1706C264.399 62.1706 263.652 62.2371 262.955 62.3679C262.258 62.4986 261.611 62.6944 261.014 62.9558C260.429 63.2169 259.906 63.5301 259.445 63.8972C258.985 64.2642 258.586 64.686 258.25 65.1589C257.926 65.6193 257.685 66.1246 257.523 66.6784C257.362 67.2322 257.279 67.8341 257.279 68.4812C257.279 69.0163 257.339 69.5042 257.457 69.946C257.575 70.3878 257.754 70.7831 257.99 71.1315C258.239 71.4675 258.547 71.7754 258.914 72.0554C259.281 72.3354 259.706 72.5872 260.191 72.8112C261.162 73.2592 262.369 73.7192 263.812 74.1921C264.683 74.4412 265.418 74.6649 266.016 74.864C266.327 74.9634 266.601 75.0737 266.838 75.192C267.074 75.3103 267.274 75.4381 267.435 75.5748C267.597 75.6992 267.718 75.8515 267.799 76.0319C267.88 76.2125 267.92 76.4204 267.92 76.6569C267.92 77.0054 267.844 77.3096 267.695 77.5709C267.546 77.8321 267.322 78.051 267.023 78.2252C266.737 78.3994 266.401 78.5287 266.015 78.6159C265.63 78.7032 265.194 78.7466 264.709 78.7466C264.186 78.7466 263.651 78.6907 263.103 78.5788C262.556 78.4669 261.996 78.2987 261.424 78.0748C260.864 77.8507 260.297 77.5659 259.724 77.2175C259.152 76.869 258.575 76.4579 257.99 75.985L256.197 79.2331C256.745 79.7682 257.344 80.2368 257.998 80.6413C258.651 81.0457 259.358 81.3851 260.117 81.6589C260.876 81.9325 261.655 82.1392 262.451 82.2761C263.247 82.4129 264.062 82.4813 264.896 82.4813C265.494 82.4813 266.061 82.4472 266.597 82.3777C267.134 82.3093 267.639 82.208 268.115 82.0712C268.591 81.9344 269.038 81.7628 269.453 81.5575C269.868 81.3523 270.253 81.1126 270.607 80.8388C270.962 80.5652 271.273 80.265 271.539 79.9384C271.805 79.6118 272.026 79.2574 272.203 78.8779C272.38 78.4983 272.515 78.0935 272.603 77.6611C272.692 77.2286 272.736 76.7694 272.736 76.2841C272.736 75.6868 272.668 75.155 272.531 74.6883C272.394 74.2217 272.187 73.8193 271.914 73.4833C271.64 73.1348 271.299 72.8148 270.888 72.5223C270.477 72.2298 269.998 71.9658 269.451 71.7294C268.38 71.2565 267.062 70.7965 265.494 70.3485C264.722 70.0995 264.063 69.8737 263.515 69.6747C262.992 69.4755 262.594 69.2518 262.32 69.0029C262.195 68.866 262.101 68.705 262.039 68.5185C261.976 68.3318 261.947 68.1201 261.947 67.8837C261.947 67.6225 261.981 67.3914 262.048 67.1923C262.117 66.9931 262.22 66.8253 262.357 66.6883C262.506 66.539 262.674 66.4113 262.861 66.3056C263.047 66.1998 263.252 66.1159 263.476 66.0535C263.949 65.9292 264.447 65.8679 264.97 65.8679C265.431 65.8679 265.887 65.9133 266.341 66.0066C266.795 66.1 267.247 66.2398 267.695 66.4266C268.143 66.6008 268.605 66.8282 269.078 67.1082C269.55 67.3882 270.035 67.7224 270.533 68.1082L272.548 64.9343C272.038 64.449 271.501 64.0328 270.935 63.6844C270.369 63.3359 269.774 63.0541 269.152 62.8426C268.53 62.6185 267.887 62.4507 267.228 62.3387C266.568 62.2268 265.892 62.1706 265.195 62.1706ZM177.648 62.2095C176.852 62.2095 176.096 62.2775 175.381 62.4147C174.665 62.5516 173.99 62.7564 173.355 63.03C172.721 63.2915 172.131 63.6063 171.59 63.9734C171.049 64.3404 170.555 64.7602 170.107 65.2331C169.672 65.706 169.285 66.2133 168.949 66.7546C168.613 67.2959 168.326 67.8714 168.09 68.4812C167.853 69.0909 167.677 69.7188 167.559 70.3659C167.44 71.013 167.381 71.6796 167.381 72.364C167.381 73.036 167.44 73.6919 167.559 74.3327C167.677 74.9736 167.853 75.5979 168.09 76.2077C168.326 76.8175 168.613 77.395 168.949 77.9363C169.285 78.4776 169.672 78.9829 170.107 79.4558C170.555 79.9287 171.049 80.3519 171.59 80.7253C172.131 81.0987 172.721 81.4223 173.355 81.696C173.99 81.9572 174.665 82.1533 175.381 82.2839C176.096 82.4147 176.852 82.4812 177.648 82.4812C178.445 82.4812 179.2 82.4147 179.916 82.2839C180.632 82.1531 181.307 81.9574 181.941 81.696C182.576 81.4224 183.16 81.0986 183.695 80.7253C184.23 80.3519 184.717 79.9287 185.152 79.4558C185.6 78.9829 185.992 78.4776 186.328 77.9363C186.664 77.395 186.944 76.8175 187.168 76.2077C187.404 75.5979 187.581 74.9736 187.699 74.3327C187.817 73.6919 187.877 73.036 187.877 72.364C187.877 71.6796 187.817 71.013 187.699 70.3659C187.581 69.7188 187.404 69.0909 187.168 68.4812C186.944 67.8714 186.664 67.2959 186.328 66.7546C185.992 66.2133 185.6 65.706 185.152 65.2331C184.704 64.7602 184.209 64.3405 183.668 63.9734C183.127 63.6064 182.539 63.2913 181.904 63.03C181.282 62.7563 180.616 62.5516 179.906 62.4147C179.197 62.2779 178.445 62.2095 177.648 62.2095ZM202.363 62.2095C201.629 62.2095 200.935 62.2934 200.281 62.4616C199.628 62.6298 199.016 62.8814 198.443 63.2174C197.871 63.5409 197.348 63.9257 196.875 64.3737C196.402 64.8217 195.979 65.3325 195.605 65.9049V62.5456H191.238V90.0593H196.24V78.6725C196.564 79.2574 196.948 79.784 197.396 80.2507C197.844 80.7173 198.355 81.1249 198.928 81.4733C199.513 81.8093 200.141 82.0612 200.813 82.2292C201.485 82.397 202.202 82.4813 202.961 82.4813C203.378 82.4813 203.782 82.4548 204.174 82.3973C204.566 82.3414 204.945 82.2575 205.312 82.1453C205.68 82.0334 206.035 81.8932 206.377 81.7253C206.719 81.5571 207.048 81.3614 207.365 81.1375C207.689 80.9073 207.995 80.6566 208.283 80.3875C208.571 80.1184 208.84 79.8302 209.092 79.5222C209.344 79.2142 209.579 78.8867 209.795 78.5398C210.011 78.1928 210.208 77.826 210.389 77.4402C210.575 77.0544 210.739 76.6583 210.879 76.2507C211.019 75.8432 211.135 75.4242 211.229 74.9949C211.322 74.5656 211.393 74.1256 211.439 73.6745C211.486 73.2235 211.51 72.7607 211.51 72.2878C211.51 71.5909 211.45 70.9193 211.332 70.2722C211.214 69.6252 211.037 69.0043 210.801 68.407C210.577 67.7972 210.306 67.2233 209.988 66.6882C209.671 66.1532 209.307 65.6565 208.897 65.196C208.486 64.7231 208.038 64.3034 207.553 63.9363C207.067 63.5693 206.544 63.2543 205.984 62.993C205.437 62.7318 204.861 62.5357 204.258 62.405C203.654 62.2742 203.023 62.2095 202.363 62.2095ZM244.176 62.2095C243.429 62.2095 242.698 62.262 241.982 62.3679C241.267 62.4737 240.567 62.6309 239.883 62.8425C239.211 63.0541 238.544 63.3201 237.885 63.6374C237.225 63.9549 236.573 64.3237 235.926 64.7468L237.531 68.032C238.066 67.671 238.589 67.3545 239.1 67.0807C239.61 66.8071 240.106 66.576 240.592 66.3894C241.077 66.2027 241.576 66.0628 242.086 65.9695C242.596 65.8761 243.119 65.8308 243.654 65.8308C244.376 65.8308 245.008 65.9147 245.549 66.0829C245.819 66.1668 246.067 66.2714 246.293 66.3973C246.519 66.5231 246.72 66.6705 246.9 66.8387C247.087 67.0065 247.251 67.1917 247.391 67.3953C247.53 67.599 247.649 67.8218 247.742 68.0614C247.836 68.301 247.904 68.5575 247.951 68.8328C247.998 69.1084 248.021 69.4026 248.021 69.7137V70.7586C247.71 70.6218 247.371 70.5027 247.004 70.4029C246.637 70.3035 246.241 70.2231 245.818 70.1607C244.972 70.0364 244.138 69.9732 243.316 69.9732C242.495 69.9732 241.722 70.0397 240.994 70.1705C240.266 70.3013 239.584 70.497 238.949 70.7584C238.315 71.0195 237.748 71.3362 237.25 71.7096C236.752 72.083 236.324 72.5133 235.963 72.9986C235.789 73.2352 235.637 73.4802 235.506 73.7369C235.375 73.9935 235.265 74.2608 235.178 74.5377C235.004 75.0915 234.918 75.6862 234.918 76.3209C234.918 76.9057 234.99 77.462 235.133 77.9908C235.276 78.5197 235.489 79.0218 235.775 79.4947C236.074 79.9551 236.426 80.3678 236.83 80.7349C237.235 81.1019 237.693 81.4241 238.203 81.6979C238.726 81.959 239.278 82.155 239.863 82.2857C240.448 82.4165 241.064 82.4811 241.711 82.4811C242.37 82.4811 243.025 82.4059 243.672 82.2566C244.319 82.1073 244.959 81.8836 245.594 81.5848C246.228 81.2862 246.811 80.9259 247.34 80.5027C247.869 80.0796 248.344 79.5932 248.768 79.0457L248.879 80.0535C248.941 80.377 249.051 80.6762 249.207 80.95C249.363 81.2236 249.563 81.474 249.812 81.698C250.073 81.9222 250.396 82.0899 250.775 82.2019C251.155 82.3138 251.592 82.3701 252.09 82.3701C252.338 82.3701 252.638 82.3437 252.986 82.2938C253.36 82.2439 253.77 82.1826 254.218 82.1082V78.0379C254.007 78.0114 253.823 77.9657 253.668 77.8973C253.512 77.8289 253.384 77.7397 253.285 77.6278C253.198 77.5159 253.133 77.367 253.09 77.1805C253.046 76.9938 253.023 76.768 253.023 76.5067V70.2724C253.023 69.6252 252.975 69.0166 252.876 68.4442C252.778 67.8717 252.631 67.3365 252.435 66.8387C252.239 66.3409 251.995 65.881 251.701 65.4579C251.407 65.0348 251.063 64.6481 250.671 64.2997C250.285 63.9512 249.861 63.647 249.398 63.3856C248.934 63.1245 248.431 62.9055 247.89 62.7313C247.349 62.5571 246.769 62.4259 246.15 62.3387C245.531 62.2514 244.873 62.2095 244.176 62.2095ZM304.992 62.2095C304.196 62.2095 303.44 62.2775 302.725 62.4147C302.009 62.5516 301.334 62.7564 300.699 63.03C300.065 63.2915 299.477 63.6063 298.936 63.9734C298.394 64.3404 297.899 64.7602 297.451 65.2331C297.016 65.706 296.629 66.2133 296.293 66.7546C295.957 67.2959 295.672 67.8714 295.436 68.4812C295.199 69.0909 295.021 69.7188 294.902 70.3659C294.784 71.013 294.725 71.6795 294.725 72.364C294.725 73.036 294.784 73.6919 294.902 74.3327C295.021 74.9736 295.199 75.5979 295.436 76.2077C295.672 76.8175 295.957 77.3949 296.293 77.9363C296.629 78.4776 297.016 78.9829 297.451 79.4558C297.899 79.9287 298.394 80.3519 298.936 80.7253C299.477 81.0987 300.065 81.4223 300.699 81.696C301.334 81.9572 302.009 82.1533 302.725 82.2839C303.44 82.4147 304.196 82.4812 304.992 82.4812C305.789 82.4812 306.544 82.4147 307.26 82.2839C307.975 82.1531 308.651 81.9574 309.285 81.696C309.92 81.4224 310.504 81.0986 311.039 80.7253C311.574 80.3519 312.061 79.9287 312.496 79.4558C312.944 78.9829 313.336 78.4776 313.672 77.9363C314.008 77.3949 314.288 76.8175 314.512 76.2077C314.748 75.5979 314.927 74.9736 315.045 74.3327C315.163 73.6919 315.221 73.036 315.221 72.364C315.221 71.6795 315.163 71.013 315.045 70.3659C314.927 69.7188 314.748 69.0909 314.512 68.4812C314.288 67.8714 314.008 67.2959 313.672 66.7546C313.336 66.2133 312.944 65.706 312.496 65.2331C312.048 64.7602 311.553 64.3405 311.012 63.9734C310.47 63.6064 309.883 63.2913 309.248 63.03C308.626 62.7563 307.959 62.5516 307.25 62.4147C306.541 62.2779 305.789 62.2095 304.992 62.2095ZM326.533 62.2095C325.861 62.2095 325.218 62.2741 324.602 62.4049C323.986 62.5357 323.398 62.7315 322.838 62.9928C322.29 63.2419 321.776 63.546 321.297 63.9069C320.818 64.2678 320.374 64.686 319.963 65.1588C319.565 65.6193 319.21 66.1159 318.898 66.651C318.587 67.1861 318.32 67.758 318.096 68.3678C317.872 68.9776 317.704 69.6126 317.592 70.2721C317.48 70.9317 317.424 71.6174 317.424 72.3268C317.424 72.9988 317.476 73.6511 317.582 74.2858C317.688 74.9205 317.847 75.5361 318.059 76.1335C318.27 76.7308 318.526 77.294 318.824 77.8229C319.123 78.3518 319.466 78.8468 319.852 79.3073C320.25 79.7677 320.682 80.1788 321.148 80.5397C321.615 80.9007 322.115 81.212 322.65 81.4733C323.198 81.7224 323.77 81.9074 324.367 82.0318C324.965 82.1562 325.587 82.2193 326.234 82.2193C326.894 82.2193 327.536 82.1441 328.158 81.9948C328.78 81.8455 329.384 81.6218 329.969 81.3229C330.566 81.0119 331.094 80.6393 331.555 80.2038C332.015 79.7682 332.407 79.2696 332.73 78.7096V81.1745C332.73 81.8091 332.662 82.3846 332.525 82.901C332.388 83.4175 332.184 83.8739 331.91 84.2721C331.648 84.6828 331.339 85.038 330.984 85.3366C330.63 85.6352 330.229 85.8784 329.781 86.0651C329.346 86.2643 328.886 86.4128 328.4 86.5123C327.915 86.6117 327.404 86.6628 326.869 86.6628C326.234 86.6628 325.615 86.5963 325.012 86.4655C324.408 86.3347 323.82 86.1389 323.248 85.8776C322.688 85.6164 322.174 85.3049 321.707 84.944C321.24 84.583 320.82 84.174 320.447 83.7136L317.722 86.364C318.245 87.0111 318.821 87.5829 319.449 88.0807C320.077 88.5785 320.76 89.0018 321.494 89.3503C321.861 89.5306 322.249 89.6874 322.656 89.823C323.064 89.9583 323.491 90.0724 323.939 90.1627C324.387 90.253 324.855 90.3207 325.344 90.366C325.832 90.411 326.34 90.4326 326.869 90.4326C327.392 90.4326 327.9 90.4099 328.394 90.3623C328.889 90.3158 329.371 90.2466 329.838 90.1532C330.304 90.0599 330.756 89.9435 331.195 89.8036C331.634 89.6638 332.058 89.5002 332.469 89.3134C332.879 89.1331 333.267 88.9304 333.633 88.7079C333.998 88.4853 334.341 88.2419 334.662 87.9775C334.982 87.7129 335.281 87.4284 335.556 87.122C335.832 86.8155 336.084 86.488 336.314 86.1396C336.551 85.7975 336.758 85.4375 336.935 85.0595C337.113 84.6815 337.26 84.2857 337.379 83.872C337.497 83.4582 337.585 83.0267 337.644 82.5771C337.703 82.1276 337.732 81.6601 337.732 81.1748V62.5458H333.365V65.9794C332.992 65.407 332.568 64.8946 332.095 64.4404C331.623 63.9862 331.1 63.5908 330.527 63.2548C330.241 63.0806 329.944 62.9283 329.634 62.7978C329.325 62.667 329.003 62.5566 328.67 62.4697C328.004 62.2955 327.292 62.2095 326.533 62.2095ZM124 62.5455V74.7896C124 75.418 124.033 76.0093 124.098 76.5631C124.163 77.1168 124.262 77.6328 124.393 78.1119C124.523 78.591 124.687 79.0337 124.883 79.4381C125.079 79.8425 125.307 80.2099 125.568 80.5396C125.83 80.8632 126.121 81.1466 126.443 81.3893C126.765 81.6319 127.117 81.8329 127.5 81.9947C127.883 82.1565 128.295 82.279 128.738 82.3599C129.182 82.4407 129.656 82.4808 130.16 82.4808C130.981 82.4808 131.769 82.3968 132.521 82.2287C133.274 82.0605 133.993 81.8088 134.678 81.4728C135.02 81.2986 135.347 81.1039 135.658 80.8907C135.969 80.6776 136.265 80.4455 136.545 80.1935C136.825 79.9414 137.089 79.6699 137.338 79.3791C137.587 79.0881 137.819 78.7772 138.037 78.4474L138.148 80.0158C138.198 80.3767 138.305 80.7003 138.467 80.9865C138.629 81.2726 138.845 81.523 139.119 81.7345C139.405 81.9337 139.732 82.0823 140.1 82.1818C140.467 82.2812 140.874 82.3303 141.322 82.3303C141.596 82.3303 141.895 82.3077 142.219 82.2563C142.567 82.2298 142.99 82.1826 143.488 82.1077V78.0374C143.277 78.011 143.093 77.9652 142.937 77.8968C142.782 77.8284 142.654 77.7392 142.555 77.6273C142.468 77.5154 142.403 77.3646 142.359 77.1781C142.316 76.9914 142.293 76.7676 142.293 76.5063V62.5453H137.291V74.6781C137.104 75.0763 136.896 75.4401 136.666 75.7699C136.436 76.0999 136.184 76.3953 135.91 76.6567C135.649 76.9178 135.371 77.147 135.078 77.3461C134.786 77.5453 134.478 77.715 134.154 77.8519C133.843 77.9763 133.53 78.0689 133.213 78.1312C132.896 78.1936 132.574 78.225 132.25 78.225C131.982 78.225 131.731 78.2023 131.496 78.1547C131.261 78.1082 131.044 78.0372 130.842 77.9438C130.64 77.8505 130.453 77.7341 130.283 77.5942C130.114 77.4544 129.961 77.2907 129.824 77.104C129.687 76.9112 129.567 76.6955 129.465 76.4575C129.362 76.2194 129.275 75.9593 129.207 75.6762C129.07 75.11 129.002 74.4541 129.002 73.7075V62.5454L124 62.5455ZM159.094 62.5455V82.108H164.096V62.5455H159.094ZM214.906 62.5455V82.108H219.91V62.5455H214.906ZM342.064 62.5455V74.7896C342.064 75.4181 342.098 76.0093 342.162 76.5631C342.227 77.1169 342.324 77.6328 342.455 78.1119C342.586 78.591 342.749 79.0336 342.945 79.4381C343.141 79.8425 343.371 80.2098 343.633 80.5396C343.894 80.8632 344.186 81.1466 344.508 81.3893C344.83 81.6319 345.182 81.8329 345.564 81.9947C345.947 82.1565 346.359 82.279 346.803 82.3599C347.246 82.4407 347.72 82.4808 348.224 82.4808C349.046 82.4808 349.833 82.3968 350.586 82.2287C351.339 82.0605 352.057 81.8088 352.742 81.4728C353.084 81.2986 353.409 81.1039 353.72 80.8907C354.032 80.6776 354.327 80.4455 354.607 80.1935C354.887 79.9414 355.151 79.6699 355.4 79.3791C355.649 79.0881 355.884 78.7772 356.101 78.4474L356.212 80.0158C356.262 80.3767 356.369 80.7003 356.531 80.9865C356.692 81.2726 356.909 81.523 357.183 81.7345C357.469 81.9337 357.796 82.0823 358.164 82.1818C358.531 82.2812 358.938 82.3303 359.386 82.3303C359.66 82.3303 359.959 82.3077 360.283 82.2563C360.631 82.2298 361.054 82.1826 361.552 82.1077V78.0374C361.341 78.011 361.157 77.9652 361.001 77.8968C360.846 77.8284 360.718 77.7392 360.619 77.6273C360.532 77.5154 360.465 77.3646 360.421 77.1781C360.378 76.9914 360.357 76.7676 360.357 76.5063V62.5453H355.355V74.6781C355.168 75.0764 354.958 75.4401 354.728 75.7699C354.498 76.0999 354.246 76.3953 353.972 76.6567C353.711 76.9178 353.434 77.147 353.142 77.3461C352.849 77.5453 352.542 77.715 352.218 77.8519C351.907 77.9763 351.592 78.0689 351.275 78.1312C350.957 78.1936 350.637 78.225 350.314 78.225C350.046 78.225 349.795 78.2023 349.56 78.1547C349.325 78.1082 349.108 78.0372 348.905 77.9438C348.703 77.8505 348.516 77.7341 348.347 77.5942C348.177 77.454 348.025 77.2907 347.888 77.104C347.751 76.9112 347.631 76.6955 347.528 76.4575C347.426 76.2194 347.339 75.9593 347.271 75.6762C347.134 75.11 347.065 74.4541 347.065 73.7075V62.5454L342.064 62.5455ZM177.648 66.4654C178.121 66.4654 178.573 66.5266 179.002 66.651C179.431 66.7753 179.839 66.9628 180.225 67.2115C180.61 67.4602 180.955 67.7595 181.26 68.108C181.565 68.4564 181.829 68.8533 182.053 69.3014C182.289 69.7493 182.468 70.2251 182.586 70.7291C182.704 71.2331 182.762 71.7667 182.762 72.3267C182.762 72.8992 182.704 73.4396 182.586 73.9498C182.468 74.46 182.289 74.9393 182.053 75.3873C181.829 75.8228 181.565 76.2146 181.26 76.5631C180.955 76.9115 180.61 77.2158 180.225 77.4771C179.839 77.7262 179.431 77.9133 179.002 78.0377C178.573 78.1621 178.121 78.2251 177.648 78.2251C177.163 78.2251 176.703 78.1621 176.268 78.0377C175.832 77.9134 175.421 77.7259 175.035 77.4771C174.649 77.2281 174.303 76.9326 173.998 76.5904C173.693 76.2483 173.429 75.86 173.205 75.4244C172.981 74.9764 172.813 74.4971 172.701 73.9869C172.589 73.4767 172.533 72.9363 172.533 72.3639C172.533 71.7915 172.589 71.2526 172.701 70.7486C172.813 70.2446 172.981 69.774 173.205 69.3384C173.429 68.8905 173.693 68.4935 173.998 68.1451C174.303 67.7966 174.649 67.4975 175.035 67.2486C175.421 66.9871 175.832 66.7914 176.268 66.6607C176.703 66.5299 177.163 66.4654 177.648 66.4654ZM200.98 66.4654C201.366 66.4654 201.737 66.5032 202.092 66.5769C202.446 66.6518 202.786 66.7636 203.109 66.9129C203.445 67.0622 203.76 67.2425 204.053 67.4539C204.345 67.6656 204.614 67.9086 204.863 68.1824C205.112 68.4436 205.331 68.7271 205.518 69.032C205.704 69.337 205.86 69.6622 205.984 70.0106C206.121 70.3591 206.225 70.7248 206.293 71.1043C206.361 71.4839 206.395 71.8772 206.395 72.2879C206.395 72.6737 206.363 73.0533 206.301 73.4266C206.239 73.8 206.146 74.1673 206.021 74.5281C205.909 74.8766 205.766 75.2108 205.592 75.5282C205.418 75.8456 205.213 76.1462 204.977 76.4324C204.753 76.7061 204.506 76.953 204.238 77.1707C203.971 77.3884 203.682 77.5773 203.371 77.7391C203.06 77.9009 202.729 78.0233 202.381 78.1042C202.032 78.1851 201.665 78.2251 201.279 78.2251C200.931 78.2251 200.586 78.1828 200.244 78.102C199.902 78.0211 199.563 77.9005 199.227 77.7387C198.891 77.5645 198.574 77.3599 198.275 77.1235C197.977 76.8869 197.697 76.6194 197.436 76.3207C197.187 76.0221 196.961 75.7072 196.762 75.3774C196.563 75.0474 196.39 74.7031 196.24 74.3422V69.7504C196.39 69.2775 196.626 68.842 196.949 68.4438C197.298 68.0455 197.697 67.6955 198.145 67.3969C198.592 67.0983 199.052 66.8745 199.525 66.725C200.023 66.5508 200.508 66.4654 200.98 66.4654ZM304.992 66.4654C305.465 66.4654 305.916 66.5266 306.346 66.651C306.775 66.7753 307.183 66.9624 307.568 67.2115C307.954 67.4602 308.299 67.7595 308.604 68.108C308.909 68.4564 309.173 68.8533 309.396 69.3014C309.633 69.7493 309.811 70.2251 309.93 70.7291C310.048 71.2331 310.107 71.7667 310.107 72.3267C310.107 72.8992 310.048 73.4396 309.93 73.9498C309.811 74.46 309.633 74.9393 309.396 75.3873C309.172 75.8229 308.908 76.2146 308.604 76.5631C308.299 76.9115 307.954 77.2158 307.568 77.4771C307.183 77.7262 306.775 77.9133 306.346 78.0377C305.916 78.1621 305.465 78.2251 304.992 78.2251C304.507 78.2251 304.047 78.1621 303.611 78.0377C303.176 77.9134 302.765 77.7259 302.379 77.4771C301.993 77.2281 301.647 76.9326 301.342 76.5904C301.037 76.248 300.773 75.86 300.549 75.4244C300.325 74.9764 300.157 74.4971 300.045 73.9869C299.933 73.4767 299.877 72.9363 299.877 72.3639C299.877 71.7915 299.933 71.2526 300.045 70.7486C300.157 70.2446 300.325 69.774 300.549 69.3384C300.773 68.8905 301.037 68.4935 301.342 68.1451C301.647 67.7966 301.993 67.4975 302.379 67.2486C302.765 66.9871 303.176 66.7914 303.611 66.6607C304.047 66.5299 304.507 66.4654 304.992 66.4654ZM327.615 66.4654C327.976 66.4654 328.328 66.5055 328.67 66.5864C329.012 66.6673 329.346 66.7878 329.67 66.9496C330.006 67.0989 330.322 67.2825 330.621 67.5003C330.92 67.718 331.2 67.97 331.461 68.2562C331.735 68.5424 331.978 68.8538 332.189 69.1898C332.401 69.5258 332.581 69.8861 332.73 70.2718V74.9398C332.556 75.3629 332.308 75.7862 331.984 76.2093C331.661 76.6076 331.286 76.9556 330.863 77.2542C330.44 77.5528 329.98 77.7891 329.482 77.9632C328.985 78.1374 328.462 78.2251 327.914 78.2251C327.541 78.2251 327.177 78.1866 326.822 78.1118C326.468 78.0369 326.123 77.9251 325.787 77.7758C325.464 77.6265 325.157 77.45 324.871 77.2445C324.585 77.0393 324.317 76.8066 324.068 76.5452C323.832 76.2841 323.622 76.0005 323.436 75.6956C323.249 75.3906 323.086 75.0637 322.949 74.7152C322.812 74.3667 322.709 74.0064 322.64 73.6331C322.572 73.2597 322.539 72.8732 322.539 72.475C322.539 72.0892 322.565 71.7132 322.623 71.3461C322.679 70.9791 322.762 70.6203 322.875 70.2718C322.999 69.9109 323.148 69.57 323.322 69.2465C323.496 68.9229 323.696 68.6166 323.92 68.3304C324.144 68.0318 324.39 67.7677 324.658 67.5375C324.926 67.3073 325.214 67.1114 325.525 66.9496C325.836 66.7878 326.167 66.6673 326.515 66.5864C326.864 66.5055 327.229 66.4654 327.615 66.4654ZM244.102 72.8482C244.724 72.8482 245.383 72.9235 246.08 73.0728C246.777 73.1971 247.424 73.3841 248.021 73.6333V75.6118C248.021 75.8605 247.934 76.1334 247.76 76.4321C247.586 76.7307 247.362 77.0299 247.088 77.3286C246.864 77.5402 246.605 77.736 246.313 77.9165C246.02 78.0968 245.695 78.2612 245.334 78.4106C244.973 78.5474 244.608 78.6506 244.24 78.7194C243.873 78.7878 243.504 78.8211 243.131 78.8211C242.77 78.8211 242.434 78.787 242.123 78.7194C241.812 78.651 241.525 78.5478 241.264 78.4106C241.002 78.2738 240.772 78.1166 240.572 77.936C240.373 77.7557 240.205 77.5526 240.069 77.3286C239.932 77.1045 239.83 76.8736 239.762 76.6372C239.694 76.4006 239.659 76.1595 239.659 75.9106C239.659 75.6805 239.685 75.4612 239.737 75.2543C239.788 75.0476 239.864 74.852 239.967 74.6684C240.07 74.4847 240.198 74.3131 240.352 74.1528C240.506 73.9926 240.686 73.8444 240.891 73.7075C241.314 73.4214 241.793 73.2061 242.329 73.0629C242.864 72.9197 243.454 72.8482 244.102 72.8482Z"
     fill="#EEEEEE"
     id="path4" />
</svg>
